<svg width="1024" height="1024" xmlns="http://www.w3.org/2000/svg" xmlns:svg="http://www.w3.org/2000/svg" version="1.1">
 <title id="titleID">Can you create an image of an atoll where there is a break in the south east corner.</title>
 <desc id="descID">AI-generated SVG illustration: Can you create an image of an atoll where there is a break in the south east corner., created on https://svgstud.io</desc>
 <metadata id="copyright">Created by https://svgstud.io and licensed under CC-BY-SA 4.0 license. Please attribute https://svgstud.io</metadata>
 <metadata id="prompt">Can you create an image of an atoll where there is a break in the south east corner.</metadata>
 <metadata id="version">7</metadata>
 <metadata>https://svgstud.io</metadata>
 <metadata id="uid">c44b8587058d4f8d0b4e4d7930622bcad83aaebfeb606dababd7cfd3af660e51</metadata>
 <g class="layer">
  <title>Layer 1</title>
  <rect fill="white" height="100%" id="svg_1" width="100%"/>
  <path d="m528,912.47c-15.12,0.14 -30.43,0.1 -34,-0.1c-3.57,-0.2 -17.52,-1.06 -31,-1.9c-16.59,-1.04 -28.4,-2.32 -36.58,-3.97c-6.64,-1.34 -19.46,-4.87 -28.5,-7.83c-9.03,-2.96 -24.3,-8.64 -33.92,-12.62c-9.62,-3.98 -21.1,-8.84 -25.5,-10.79c-4.4,-1.96 -11.87,-5.73 -16.6,-8.39c-4.73,-2.65 -15.53,-9.62 -24,-15.48c-8.47,-5.87 -25.97,-18.55 -38.9,-28.19c-16.08,-11.99 -26.66,-20.73 -33.5,-27.66c-6.06,-6.14 -14.18,-16.02 -20.62,-25.09c-5.85,-8.22 -14.67,-21.47 -19.61,-29.45c-4.95,-7.98 -13.4,-22.12 -18.78,-31.43c-5.38,-9.32 -12.39,-22.37 -15.58,-29c-3.19,-6.64 -7.64,-17.47 -9.9,-24.07c-2.26,-6.6 -5.42,-16.95 -7.03,-23c-1.6,-6.05 -4.07,-17.3 -5.49,-25c-1.41,-7.7 -4.44,-26.6 -6.73,-42c-4.03,-27.03 -4.17,-28.87 -4.19,-53c-0.02,-19.49 0.37,-27.19 1.74,-34.95c0.96,-5.46 4.9,-24.64 8.73,-42.61c3.84,-17.97 8.53,-37.58 10.43,-43.58c1.9,-5.99 5.47,-15.51 7.93,-21.14c2.47,-5.63 11.32,-22.95 19.68,-38.48c8.36,-15.53 17.2,-31.28 19.64,-35c2.45,-3.72 6.53,-9.35 9.08,-12.5c2.54,-3.16 15.72,-18.34 29.29,-33.74c13.56,-15.4 27.3,-30.51 30.53,-33.57c3.24,-3.07 11.32,-9.22 17.98,-13.67c6.65,-4.45 18.75,-12.22 26.9,-17.26c8.15,-5.04 20.39,-12.3 27.21,-16.12c6.82,-3.82 16.32,-8.77 21.1,-11c4.78,-2.23 16.79,-7.67 26.69,-12.08c9.9,-4.42 22.95,-9.97 29,-12.34c6.05,-2.37 16.27,-5.91 22.71,-7.86c6.44,-1.95 16.95,-4.29 23.36,-5.22c10.6,-1.52 17.02,-1.57 71.29,-0.54c45.12,0.85 61.82,1.5 68.61,2.68c4.93,0.85 12.58,2.47 17,3.59c4.42,1.13 21.98,7.01 39.03,13.09c17.05,6.07 35.5,13.16 41,15.75c5.65,2.66 20.01,11.43 33,20.15c12.65,8.5 27.73,19.01 33.5,23.37c5.77,4.35 14.33,11.09 19,14.96c4.67,3.88 15.48,13.18 24,20.67c8.52,7.48 18.46,16.71 22.08,20.51c3.62,3.79 9.73,11.62 13.59,17.39c3.86,5.77 13.92,21.52 22.36,35c8.44,13.48 17.92,29.9 21.06,36.5c3.15,6.6 7.83,17.85 10.41,24.99c2.58,7.15 6.19,18.49 8.03,25.2c1.84,6.72 5.85,23.37 8.9,37.01c3.05,13.64 6.31,29.53 7.24,35.3c1.29,8.02 1.69,16.98 1.68,38c0,22.25 -0.52,32.78 -2.69,55.17c-1.47,15.22 -3.36,31.65 -4.18,36.5c-0.83,4.86 -2.89,13.56 -4.57,19.33c-1.68,5.77 -6,17.92 -9.6,27c-3.6,9.08 -12.08,28.34 -18.86,42.82c-7.14,15.25 -14.04,28.55 -16.42,31.64c-2.25,2.92 -5.84,6.52 -7.97,8c-2.13,1.47 -6.05,3.34 -8.71,4.15c-2.67,0.81 -8.28,1.74 -12.47,2.07c-6.11,0.48 -8.97,0.18 -14.5,-1.5c-3.78,-1.15 -8.9,-3.4 -11.38,-5c-2.48,-1.6 -10.35,-7.96 -17.5,-14.14c-7.15,-6.18 -16.47,-14.65 -20.71,-18.82c-4.92,-4.84 -8.53,-9.41 -9.98,-12.65c-1.87,-4.15 -2.29,-6.83 -2.3,-14.75c-0.01,-9.68 -0.01,-9.68 7.19,-23.58c3.96,-7.64 9.21,-18.81 11.67,-24.82c2.46,-6 6.04,-16.09 7.95,-22.42c1.91,-6.33 4.39,-15.77 5.5,-21c1.12,-5.23 2.83,-15.35 3.8,-22.5c1.26,-9.28 1.76,-19.44 1.74,-35.5c-0.02,-17.94 -0.47,-25.34 -2.18,-36.5c-1.19,-7.7 -3.49,-19.4 -5.11,-26c-1.62,-6.6 -5.03,-18.07 -7.58,-25.5c-2.54,-7.43 -7.67,-19.8 -11.39,-27.5c-3.72,-7.7 -9.75,-18.87 -13.4,-24.82c-3.65,-5.95 -10.56,-16.07 -15.34,-22.5c-5.28,-7.09 -15.02,-17.98 -24.78,-27.73c-9.61,-9.59 -20.91,-19.67 -28.08,-25.04c-6.6,-4.94 -16.2,-11.58 -21.33,-14.75c-5.13,-3.17 -13.46,-7.98 -18.51,-10.68c-5.05,-2.7 -13.95,-6.9 -19.78,-9.34c-5.82,-2.44 -16.16,-6.24 -22.98,-8.45c-6.82,-2.21 -17.57,-5.17 -23.9,-6.57c-6.33,-1.41 -16.45,-3.35 -22.5,-4.31c-8.46,-1.35 -17.12,-1.76 -37.5,-1.76c-20.46,-0.01 -29.12,0.4 -38,1.77c-6.32,0.98 -16.68,2.92 -23,4.31c-6.32,1.4 -18.25,4.78 -26.49,7.52c-8.25,2.75 -21.16,7.83 -28.69,11.29c-7.52,3.47 -19.12,9.55 -25.75,13.52c-6.64,3.97 -16.99,10.89 -22.99,15.38c-6,4.49 -15.29,11.98 -20.63,16.66c-5.34,4.68 -14.01,13.23 -19.25,19c-5.25,5.77 -13.23,15.45 -17.74,21.5c-4.51,6.05 -10.81,15.27 -13.99,20.5c-3.18,5.23 -9.08,16.27 -13.11,24.54c-4.06,8.35 -9.76,22.37 -12.8,31.5c-3.02,9.05 -6.82,23.21 -8.46,31.46c-1.64,8.25 -3.46,19.92 -4.04,25.92c-0.58,6.01 -1.06,18.61 -1.06,28.01c0,9.4 0.68,22.91 1.52,30.04c0.83,7.12 2.63,18.37 4,24.99c1.38,6.62 3.85,16.52 5.5,21.99c1.65,5.47 4.66,14.47 6.69,20c2.02,5.53 7.21,17.13 11.54,25.78c4.32,8.65 11.77,21.56 16.55,28.69c4.79,7.12 12.46,17.48 17.05,23.01c4.6,5.54 14.05,15.53 21,22.21c6.96,6.69 18.22,16.31 25.02,21.39c6.81,5.07 17.93,12.47 24.71,16.44c6.78,3.96 18.27,9.92 25.53,13.23c7.26,3.31 19.76,8.18 27.79,10.83c8.03,2.64 21.35,6.17 29.6,7.85c8.25,1.67 18.82,3.52 23.5,4.11c4.68,0.59 15.25,1.35 23.5,1.68c8.95,0.36 20.65,0.11 29,-0.62c7.7,-0.67 18.95,-2.1 25,-3.19c6.05,-1.08 15.28,-3.05 20.52,-4.37c5.24,-1.33 14.91,-4.26 21.5,-6.52c6.59,-2.26 18.92,-7.46 27.4,-11.55c8.48,-4.1 17.69,-8.86 20.48,-10.57c2.79,-1.72 7.51,-3.96 10.49,-4.98c2.98,-1.03 7.76,-1.87 10.61,-1.87c2.85,0 7.22,0.61 9.71,1.36c2.49,0.75 6.63,2.81 9.2,4.58c2.57,1.77 10.17,9.78 16.88,17.8c6.72,8.02 14.63,17.55 17.6,21.17c2.96,3.63 6.78,9.51 8.49,13.09c2.77,5.79 3.11,7.48 3.1,15.5c-0.01,7.62 -0.42,9.87 -2.65,14.67c-1.45,3.11 -4.5,8.17 -6.76,11.24c-2.54,3.43 -6.14,6.75 -9.35,8.61c-2.87,1.67 -13.11,7.03 -22.76,11.93c-9.64,4.89 -25.39,12.24 -35,16.34c-9.6,4.1 -25.38,10.43 -35.05,14.06c-9.67,3.64 -21.91,7.76 -27.2,9.17c-5.28,1.41 -15.59,3.49 -22.91,4.62c-10.56,1.64 -18.97,2.12 -40.8,2.33zm-4.69,-2.65c3.75,0.1 13.42,-0.3 21.5,-0.89c8.08,-0.59 21,-2.14 28.71,-3.43c7.72,-1.3 18.52,-3.8 24,-5.56c5.49,-1.75 16.81,-5.81 25.16,-9.01c8.35,-3.2 21.18,-8.36 28.5,-11.47c7.33,-3.11 21.87,-9.84 32.32,-14.96c10.45,-5.12 21.79,-11.04 25.2,-13.15c3.41,-2.12 7.73,-5.87 9.6,-8.35c1.87,-2.48 4.49,-6.52 5.8,-9c2.07,-3.89 2.4,-5.87 2.4,-14.5c0,-8.96 -0.28,-10.54 -2.74,-15.19c-1.5,-2.85 -10.56,-14.59 -20.13,-26.07c-12.03,-14.44 -18.93,-21.87 -22.36,-24.07c-2.74,-1.76 -7.44,-3.64 -10.5,-4.21c-3.87,-0.71 -7.02,-0.69 -10.41,0.06c-2.67,0.59 -10.54,4.2 -17.48,8.02c-6.94,3.82 -17.74,9.23 -24,12.02c-6.26,2.8 -16.55,6.81 -22.88,8.93c-6.33,2.12 -16.04,5 -21.6,6.41c-5.55,1.41 -15.78,3.48 -22.73,4.61c-6.95,1.13 -18.77,2.43 -26.25,2.89c-7.49,0.46 -20.91,0.47 -29.83,0.02c-8.92,-0.45 -20.91,-1.55 -26.65,-2.44c-5.74,-0.89 -14.49,-2.53 -19.44,-3.64c-4.95,-1.12 -13.73,-3.38 -19.5,-5.03c-5.77,-1.65 -15.68,-5.03 -22,-7.52c-6.32,-2.48 -17.16,-7.38 -24.07,-10.88c-6.91,-3.51 -16.58,-8.89 -21.5,-11.96c-4.91,-3.07 -14.11,-9.49 -20.43,-14.27c-6.32,-4.77 -17.08,-14.08 -23.9,-20.68c-6.81,-6.6 -16.2,-16.5 -20.84,-22c-4.65,-5.5 -12.46,-16.01 -17.35,-23.36c-4.89,-7.34 -12.22,-19.94 -16.29,-28c-4.07,-8.05 -9.73,-20.86 -12.57,-28.46c-2.84,-7.61 -6.92,-20.7 -9.06,-29.1c-2.14,-8.4 -4.82,-21.52 -5.95,-29.17c-1.12,-7.65 -2.33,-21.11 -2.68,-29.91c-0.37,-9.38 -0.15,-21.79 0.52,-30c0.64,-7.7 2.08,-19.55 3.21,-26.33c1.13,-6.79 3.57,-17.87 5.42,-24.64c1.86,-6.77 5,-16.75 6.98,-22.17c1.98,-5.42 7.6,-17.96 12.49,-27.86c4.9,-9.9 12.33,-23.16 16.53,-29.47c4.19,-6.3 11.06,-15.75 15.25,-21c4.2,-5.24 13.51,-15.4 20.69,-22.56c7.18,-7.17 16.87,-16.08 21.55,-19.81c4.68,-3.72 14.12,-10.55 21,-15.16c6.88,-4.62 18.57,-11.54 26,-15.38c7.43,-3.84 18.45,-9 24.5,-11.47c6.05,-2.47 16.18,-6.06 22.5,-7.97c6.32,-1.91 16.68,-4.63 23,-6.04c6.32,-1.42 17.12,-3.34 24,-4.28c8.69,-1.19 19.51,-1.72 35.5,-1.75c16.61,-0.02 26.45,0.45 35.41,1.71c6.83,0.96 17.41,2.82 23.5,4.15c6.1,1.32 16.49,4.04 23.09,6.04c6.6,2.01 16.95,5.67 23,8.13c6.05,2.47 15.95,7.09 22,10.26c6.05,3.17 15.22,8.37 20.37,11.57c5.15,3.19 14.79,9.84 21.42,14.79c6.63,4.94 18.33,15.12 26,22.61c7.68,7.5 17.76,18.36 22.4,24.13c4.64,5.77 11.81,15.56 15.94,21.74c4.12,6.18 10.59,17.21 14.38,24.5c3.78,7.29 8.94,18.39 11.45,24.66c2.52,6.27 6.11,16.43 7.97,22.57c1.86,6.14 4.32,15.48 5.46,20.77c1.15,5.29 2.8,14.03 3.68,19.44c0.9,5.6 1.82,19.32 2.13,31.95c0.36,14.18 0.12,26.39 -0.66,34c-0.67,6.53 -2.09,16.82 -3.16,22.87c-1.07,6.05 -3.32,16.17 -4.99,22.48c-1.67,6.31 -5.08,16.89 -7.58,23.5c-2.5,6.61 -8.42,19.59 -13.16,28.85c-8.62,16.82 -8.62,16.82 -8.6,24.5c0.02,6.09 0.55,8.81 2.58,13.19c1.93,4.17 4.86,7.63 11.96,14.11c5.18,4.72 14.58,13.15 20.91,18.72c6.85,6.05 14.12,11.46 17.99,13.4c6.17,3.09 7.03,3.25 17.5,3.21c9.33,-0.03 11.82,-0.4 16.28,-2.38c3.31,-1.47 7.12,-4.37 10.27,-7.81c3.21,-3.51 6.82,-9.28 10.1,-16.12c2.81,-5.86 8.92,-18.98 13.59,-29.15c4.66,-10.17 10.24,-22.92 12.4,-28.33c2.15,-5.41 5.67,-14.9 7.8,-21.09c2.14,-6.19 4.8,-15.72 5.92,-21.17c1.12,-5.45 3.29,-22.29 4.82,-37.41c2.35,-23.27 2.78,-32.12 2.8,-57.5c0.02,-19.97 -0.41,-32.84 -1.29,-38.5c-0.72,-4.68 -3.99,-20.5 -7.26,-35.17c-3.27,-14.66 -7.72,-32.89 -9.88,-40.5c-2.15,-7.61 -5.78,-18.78 -8.04,-24.83c-2.27,-6.05 -6.5,-15.97 -9.41,-22.05c-2.9,-6.07 -12.17,-22.05 -20.59,-35.5c-8.42,-13.45 -18.37,-29.01 -22.1,-34.58c-3.73,-5.57 -9.4,-12.96 -12.59,-16.41c-3.2,-3.45 -12.79,-12.42 -21.31,-19.93c-8.52,-7.5 -20.45,-17.73 -26.5,-22.71c-6.05,-4.99 -16.4,-13.01 -23,-17.83c-6.6,-4.82 -20.59,-14.47 -31.08,-21.45c-10.49,-6.98 -23.32,-14.76 -28.5,-17.28c-5.18,-2.52 -17.75,-7.59 -27.92,-11.26c-10.17,-3.67 -26.38,-9.31 -36,-12.53c-9.62,-3.23 -20.93,-6.56 -25.11,-7.4c-4.19,-0.84 -11.84,-1.96 -17,-2.49c-5.17,-0.53 -29.19,-1.33 -53.39,-1.77c-24.2,-0.45 -50,-0.71 -57.33,-0.59c-7.33,0.12 -17.68,0.95 -23,1.84c-5.32,0.89 -17.55,4.23 -27.17,7.42c-9.62,3.19 -27.83,10.38 -40.44,15.98c-12.62,5.59 -29.06,13.27 -36.52,17.06c-7.47,3.79 -21,11.32 -30.06,16.73c-9.06,5.42 -21.8,13.32 -28.31,17.57c-6.5,4.24 -15.08,10.13 -19.07,13.07c-4.23,3.13 -13.2,11.95 -21.59,21.23c-7.89,8.74 -21.13,23.69 -29.43,33.23c-8.29,9.54 -17.48,20.57 -20.41,24.5c-2.93,3.93 -7.71,11.42 -10.62,16.65c-2.91,5.23 -8.68,15.8 -12.82,23.5c-4.15,7.7 -10.23,19.24 -13.51,25.64c-3.29,6.4 -7.61,15.85 -9.59,21c-1.99,5.15 -4.75,13.18 -6.14,17.86c-1.4,4.68 -5.67,23.35 -9.51,41.5c-3.83,18.15 -7.62,37.33 -8.41,42.63c-0.79,5.3 -1.75,14.97 -2.12,21.5c-0.41,7 -0.21,17.74 0.49,26.2c0.66,7.87 3.37,28.8 6.04,46.5c2.66,17.69 6.05,37.57 7.53,44.17c1.48,6.6 4.25,17.17 6.15,23.5c1.91,6.33 5.08,15.55 7.04,20.5c1.96,4.95 5.54,12.95 7.95,17.77c2.42,4.82 8.72,16.3 14.01,25.5c5.3,9.2 13.67,23.25 18.62,31.23c4.95,7.98 12.17,19 16.05,24.5c3.88,5.5 9.39,12.92 12.24,16.5c2.86,3.58 9.41,10.59 14.56,15.6c5.15,5 18.42,15.86 29.49,24.12c11.06,8.26 26.23,19.37 33.72,24.68c7.48,5.31 17.14,11.85 21.45,14.53c4.32,2.68 12.05,6.98 17.18,9.56c5.13,2.57 18.15,8.29 28.93,12.71c10.78,4.42 27.48,10.64 37.1,13.82c9.62,3.19 22,6.71 27.5,7.82c5.5,1.12 15.85,2.5 23,3.07c7.15,0.58 22.68,1.51 34.5,2.09c11.82,0.57 23.98,1.17 27,1.33c3.02,0.17 8.57,0.38 12.31,0.49zm2.19,-7.35c-9.9,0.21 -24.75,-0.01 -33,-0.48c-8.25,-0.48 -21.75,-1.36 -30,-1.97c-8.25,-0.6 -19.05,-1.74 -24,-2.52c-4.95,-0.78 -14.4,-2.82 -21,-4.54c-6.6,-1.71 -17.85,-5.07 -25,-7.46c-7.15,-2.4 -20.2,-7.35 -29,-11.02c-8.8,-3.66 -22.23,-9.85 -29.84,-13.74c-7.61,-3.9 -19.54,-10.9 -26.5,-15.56c-6.96,-4.66 -21.21,-14.85 -31.66,-22.63c-10.45,-7.79 -23.05,-17.58 -28,-21.75c-4.95,-4.18 -13.28,-12.39 -18.5,-18.25c-5.22,-5.87 -13.26,-15.7 -17.85,-21.85c-4.59,-6.16 -11.95,-17 -16.36,-24.1c-4.42,-7.11 -12.32,-20.38 -17.57,-29.51c-5.25,-9.12 -11.89,-21.54 -14.76,-27.59c-2.88,-6.05 -6.82,-15.05 -8.78,-20c-1.95,-4.95 -5.14,-14.25 -7.08,-20.68c-1.93,-6.42 -4.91,-18.34 -6.6,-26.48c-1.69,-8.14 -4.95,-27.41 -7.24,-42.82c-4.02,-27.08 -4.16,-28.88 -4.2,-53.52c-0.03,-19.79 0.36,-28.08 1.76,-37c0.99,-6.32 4.48,-24.1 7.75,-39.5c3.28,-15.4 7.11,-32.05 8.52,-37c1.41,-4.95 4.58,-14.18 7.04,-20.5c2.46,-6.32 8.46,-19.15 13.32,-28.5c4.87,-9.35 12.29,-23.26 16.5,-30.92c4.21,-7.65 10.21,-17.55 13.34,-22c3.13,-4.44 9.05,-12.13 13.14,-17.08c4.1,-4.95 14.07,-16.43 22.17,-25.5c8.1,-9.07 17.8,-19.48 21.56,-23.11c3.76,-3.64 10.57,-9.8 15.13,-13.68c4.55,-3.89 12.88,-10.18 18.5,-13.98c5.61,-3.8 15.83,-10.29 22.71,-14.43c6.88,-4.14 18.38,-10.73 25.56,-14.65c7.18,-3.92 21.35,-10.9 31.5,-15.51c10.14,-4.6 24.25,-10.7 31.36,-13.54c7.11,-2.84 17.91,-6.49 24,-8.1c6.09,-1.62 17.15,-4.04 24.58,-5.4c7.43,-1.35 19.71,-2.97 27.29,-3.6c10.17,-0.84 23.43,-0.86 50.5,-0.07c20.19,0.58 39.86,1.32 43.71,1.63c3.85,0.32 12.6,1.46 19.44,2.53c6.84,1.08 16.07,2.89 20.5,4.02c4.43,1.13 13.46,3.87 20.06,6.09c6.6,2.22 17.17,5.97 23.5,8.32c6.33,2.34 16.14,6.33 21.8,8.84c5.67,2.52 14.45,6.89 19.5,9.73c5.06,2.83 15.5,9.31 23.2,14.4c7.7,5.08 21.2,14.64 30,21.24c8.8,6.6 22.66,17.71 30.79,24.68c8.14,6.98 18.64,16.6 23.34,21.39c4.71,4.78 11.85,12.61 15.87,17.38c4.03,4.77 10.66,13.77 14.74,20c4.08,6.23 11.47,17.84 16.42,25.82c4.95,7.98 11.07,18.32 13.6,23c2.53,4.68 6.72,13.68 9.31,20c2.59,6.32 6.23,16 8.1,21.5c1.86,5.5 4.92,15.85 6.81,23c1.88,7.15 4.99,19.98 6.91,28.5c1.91,8.52 4.17,19.32 5,24c0.84,4.68 2.04,13.9 2.67,20.5c0.62,6.6 1.14,20.55 1.14,31c0,11 -0.88,29.31 -2.11,43.5c-1.16,13.48 -2.59,27.88 -3.17,32c-0.58,4.12 -2.2,12.2 -3.59,17.94c-1.39,5.74 -4.34,15.86 -6.56,22.5c-2.21,6.63 -7.07,19.26 -10.79,28.06c-3.71,8.8 -10.2,23.82 -14.41,33.39c-4.22,9.56 -8.99,19.32 -10.62,21.68c-1.62,2.36 -4.19,5.18 -5.7,6.25c-1.51,1.07 -4.33,2.43 -6.25,3.01c-1.92,0.57 -5.41,1.75 -7.75,2.6c-3.4,1.25 -5.59,1.37 -10.95,0.61c-4.06,-0.57 -7.7,-1.75 -9.25,-2.98c-1.4,-1.12 -5.54,-3.84 -9.2,-6.03c-3.65,-2.2 -7.82,-5.39 -9.25,-7.09c-1.43,-1.7 -2.68,-3.85 -2.77,-4.77c-0.09,-0.92 -0.2,-3.02 -0.25,-4.66c-0.07,-2.72 -0.45,-3.05 -4.08,-3.56c-2.2,-0.31 -4.96,-1.09 -6.14,-1.73c-1.18,-0.65 -3.3,-2.55 -4.72,-4.24c-1.65,-1.96 -2.82,-4.87 -3.25,-8.07c-0.39,-2.98 -1.82,-6.72 -3.51,-9.21c-1.56,-2.31 -2.85,-5.2 -2.86,-6.43c-0.02,-1.68 1.15,-2.8 4.67,-4.5c3.49,-1.69 5.17,-3.29 6.56,-6.27c1.03,-2.2 2.42,-5.12 3.09,-6.5c0.92,-1.88 2.14,-2.58 4.93,-2.81c2.42,-0.2 4.22,-1.06 5.21,-2.47c0.84,-1.19 1.52,-3.65 1.52,-5.47c0,-1.86 1.63,-6.45 3.75,-10.52c3.75,-7.23 3.75,-7.23 3.47,-19.19c-0.15,-6.58 0.24,-14.45 0.86,-17.5c0.62,-3.05 2.74,-9.75 4.7,-14.9c3.56,-9.35 3.56,-9.35 1.75,-20.25c-1.22,-7.28 -1.62,-13.22 -1.23,-17.93c0.37,-4.46 1.51,-8.95 3.11,-12.25c1.38,-2.87 3.95,-6.88 5.7,-8.93c3.19,-3.72 3.19,-3.72 1.04,-9.34c-1.18,-3.09 -2.15,-6.92 -2.15,-8.51c0,-1.59 0.73,-4.71 1.62,-6.94c1.09,-2.71 1.47,-5.87 1.17,-9.54c-0.34,-4.11 -1.89,-8.31 -6.14,-16.72c-3.12,-6.18 -5.67,-12.51 -5.66,-14.07c0,-1.56 -0.84,-3.59 -1.88,-4.5c-1.03,-0.91 -3.54,-6.81 -5.58,-13.11c-2.03,-6.29 -4.61,-13.27 -5.73,-15.5c-1.11,-2.23 -3.52,-6.53 -5.33,-9.55c-1.82,-3.02 -4.66,-8.93 -6.33,-13.13c-1.66,-4.19 -5.02,-10.72 -7.46,-14.5c-2.44,-3.78 -5.18,-9.05 -6.08,-11.71c-0.9,-2.67 -1.69,-7 -1.75,-9.64c-0.07,-3.28 0.61,-6.06 2.16,-8.82c1.25,-2.22 2.02,-4.68 1.71,-5.48c-0.3,-0.79 -1.92,-1.71 -3.6,-2.05c-1.68,-0.33 -3.94,-1.49 -5.02,-2.57c-1.09,-1.09 -2.79,-4.36 -3.79,-7.29c-1.45,-4.25 -3.81,-7.38 -11.81,-15.67c-8.87,-9.19 -11.11,-10.92 -19.84,-15.3c-7.1,-3.57 -12.11,-7.03 -18,-12.42c-4.49,-4.11 -11.98,-10.27 -16.66,-13.69c-6.15,-4.51 -9.19,-7.52 -11.01,-10.89c-1.38,-2.56 -3.41,-5.67 -4.5,-6.9c-1.1,-1.23 -4.69,-3.48 -7.99,-4.99c-3.3,-1.5 -10.05,-3.97 -15,-5.47c-4.95,-1.5 -11.12,-3.8 -13.72,-5.1c-3.8,-1.92 -6.28,-2.38 -12.79,-2.38c-4.44,0 -11.49,-0.71 -15.67,-1.57c-4.18,-0.86 -12.6,-3.21 -18.71,-5.22c-11.11,-3.65 -11.11,-3.65 -29.11,-3.46c-10.63,0.12 -20.46,-0.28 -24,-0.98c-3.3,-0.65 -9.6,-1.27 -14,-1.38c-4.4,-0.11 -12.27,-0.5 -17.5,-0.87c-8.82,-0.62 -10.21,-0.45 -19.37,2.4c-9.14,2.85 -10.97,3.08 -24.53,3.08c-14.66,0 -14.66,0 -21.89,3.46c-3.97,1.91 -10.71,4.55 -14.97,5.87c-5,1.55 -11.44,4.76 -18.19,9.06c-5.74,3.66 -15.64,9.29 -22,12.52c-6.35,3.22 -16.05,7.53 -21.55,9.57c-5.5,2.04 -12.65,5.11 -15.89,6.83c-3.97,2.1 -7.51,5.1 -10.83,9.16c-2.71,3.31 -6.13,6.82 -7.61,7.77c-1.47,0.96 -3.66,1.75 -4.87,1.75c-1.91,0.01 -2.17,0.51 -2.04,3.95c0.11,2.59 -0.47,4.63 -1.67,5.96c-1.01,1.11 -3.3,2.51 -5.09,3.1c-2.35,0.78 -4.26,2.68 -6.83,6.79c-1.96,3.14 -7.24,9.76 -11.74,14.71c-4.5,4.95 -14.34,15.98 -21.86,24.5c-7.52,8.52 -15.99,19.1 -18.82,23.5c-2.83,4.4 -7.19,10.01 -9.69,12.46c-3.41,3.33 -4.57,5.22 -4.58,7.5c-0.01,1.67 -0.95,5.06 -2.08,7.54c-1.62,3.56 -1.91,5.6 -1.4,9.76c0.54,4.42 0.29,5.85 -1.6,8.9c-1.5,2.42 -2.7,6.86 -3.58,13.24c-0.73,5.28 -2.42,13.42 -3.75,18.1c-1.33,4.68 -2.93,11.34 -3.55,14.82c-0.85,4.72 -0.84,7.72 0.02,11.85c0.63,3.04 0.84,7.15 0.47,9.13c-0.37,1.98 -1.76,5.65 -3.09,8.14c-1.75,3.28 -2.42,6.14 -2.42,10.24c0,4.12 0.63,6.76 2.25,9.51c2.17,3.67 2.25,4.75 2.36,29.81c0.11,24.09 0.27,26.39 2.25,31.26c1.4,3.44 2.14,7.44 2.14,11.54c0,3.61 0.81,8.59 1.92,11.73c1.05,3.01 2.41,9.06 3.02,13.44c0.6,4.38 1.58,9.78 2.16,12c0.59,2.22 3.03,8.08 5.43,13.03c2.4,4.95 5.88,12.62 7.74,17.05c1.86,4.43 5.56,11.41 8.22,15.5c2.66,4.1 8.37,13.28 12.69,20.41c4.33,7.13 8.81,15.56 9.97,18.73c1.16,3.18 2.61,6.19 3.23,6.7c0.62,0.51 3.71,1.8 6.87,2.86c5.75,1.94 5.75,1.94 5.75,-0.41c0,-1.28 0.9,-3.24 2,-4.34c1.1,-1.1 2.89,-2 3.98,-2c1.1,0 3.34,1.24 4.99,2.75c1.65,1.51 3.65,4.35 4.45,6.31c1.16,2.84 1.21,4.05 0.26,5.96c-0.66,1.32 -2.26,2.65 -3.57,2.95c-2.31,0.55 -2.26,0.66 1.72,4.25c2.24,2.03 5.79,4.55 7.87,5.6c2.09,1.06 6.73,2.93 10.3,4.17c3.57,1.24 8.98,3.72 12,5.52c3.02,1.8 12.48,6.75 21,11.01c8.52,4.25 17.82,9.26 20.65,11.14c2.84,1.87 6.99,5.78 9.23,8.68c2.52,3.27 6.07,6.35 9.34,8.1c2.9,1.56 6.98,3.73 9.06,4.82c2.3,1.2 8.07,2.51 14.73,3.33c6.03,0.74 13.55,1.99 16.72,2.77c3.17,0.79 9.82,1.7 14.77,2.04c4.95,0.33 11.62,1.23 14.83,1.99c3.66,0.87 6.9,2.42 8.74,4.18c2.92,2.79 2.92,2.79 5.17,0.72c1.24,-1.14 3.61,-2.36 5.26,-2.71c2.31,-0.48 4.95,0.31 11.44,3.45c7.51,3.63 9.67,4.19 19.74,5.11c10.69,0.98 11.48,0.92 14.68,-1.05c1.88,-1.17 5.07,-2.09 7.2,-2.09c2.89,0 5.66,-1.2 11.38,-4.94c4.16,-2.71 9.92,-5.85 12.81,-6.98c2.89,-1.13 10.67,-3.42 17.3,-5.09c6.62,-1.67 16.41,-4.8 21.75,-6.95c5.33,-2.14 13.75,-5.66 18.7,-7.8c4.95,-2.15 12.38,-6.02 16.5,-8.6c4.12,-2.59 9.81,-5.38 12.63,-6.21c4.34,-1.27 5.22,-1.94 5.7,-4.35c0.32,-1.56 1.3,-3.57 2.19,-4.46c0.89,-0.89 2.71,-1.62 4.04,-1.62c1.73,0 3.13,1.13 4.94,3.99c1.38,2.2 4.3,5.12 6.48,6.5c2.18,1.37 4.6,3.74 5.39,5.26c0.78,1.51 2.36,3.6 3.5,4.63c1.51,1.37 2.91,1.71 5.17,1.26c1.76,-0.35 4.45,-0.04 6.27,0.73c1.76,0.74 6.38,4.9 10.27,9.24c3.9,4.34 7.92,9.18 8.95,10.76c1.02,1.58 2.22,5.18 2.65,8c0.44,2.82 1.09,7.72 1.44,10.88c0.59,5.13 0.33,6.42 -2.45,12.06c-2,4.06 -5.37,8.49 -9.44,12.39c-4.5,4.32 -9.3,7.57 -16.61,11.24c-5.65,2.83 -16.2,7.77 -23.45,10.97c-7.24,3.2 -21.05,8.99 -30.67,12.86c-9.62,3.88 -22.1,8.64 -27.73,10.6c-5.63,1.95 -16.88,4.9 -25,6.56c-8.12,1.66 -20.39,3.72 -27.27,4.58c-6.88,0.87 -20.6,1.75 -30.5,1.96zm-2,-3.99c15.47,-0.23 29,-0.97 35.5,-1.93c5.77,-0.85 15.23,-2.48 21,-3.62c5.77,-1.13 13.68,-2.93 17.57,-4c3.89,-1.06 16.72,-5.7 28.5,-10.3c11.79,-4.6 29.31,-11.85 38.93,-16.1c9.62,-4.26 21.42,-9.76 26.21,-12.22c6.43,-3.3 10.25,-6.11 14.57,-10.74c3.67,-3.92 6.73,-8.41 8.19,-12c2.1,-5.16 2.22,-6.25 1.18,-10.73c-0.63,-2.75 -1.15,-6.22 -1.15,-7.72c0,-1.5 -1.3,-4.73 -2.9,-7.17c-1.59,-2.45 -6.02,-7.75 -9.85,-11.79c-5.29,-5.59 -7.48,-7.26 -9.2,-7c-1.97,0.3 -2.27,0.98 -2.42,5.53c-0.12,3.95 -0.74,5.79 -2.57,7.75c-1.33,1.41 -3.43,2.56 -4.67,2.56c-1.24,0 -3.41,-0.44 -4.82,-0.97c-2.17,-0.83 -2.79,-0.62 -4.11,1.39c-0.85,1.31 -2.54,2.63 -3.76,2.96c-1.46,0.39 -3.82,-0.42 -7.04,-2.42c-2.67,-1.64 -6.88,-3.45 -9.36,-4.01c-3.77,-0.84 -5.02,-0.71 -7.55,0.77c-1.67,0.98 -4.36,3.41 -5.97,5.41c-2.87,3.55 -2.9,3.72 -1.51,7.84c1.06,3.14 1.19,5.54 0.51,9.37c-0.5,2.84 -1.67,6.74 -2.6,8.66c-0.98,2.05 -3.13,4.22 -5.18,5.25c-1.92,0.96 -5.63,1.75 -8.24,1.75c-2.61,0 -7.11,-0.9 -10,-2c-2.89,-1.1 -6.74,-2 -8.56,-2c-2.65,0 -3.63,0.6 -5,3.1c-0.93,1.7 -2.52,4.18 -3.52,5.5c-1.04,1.37 -2.86,2.4 -4.24,2.4c-1.5,0 -4.52,-1.9 -7.94,-5c-5.52,-5 -5.52,-5 -13.08,-5c-4.15,0 -8.4,0.46 -9.44,1.01c-1.04,0.56 -2.35,2.69 -2.92,4.73c-0.56,2.04 -0.75,6.07 -0.41,8.96c0.47,4.01 0.22,5.85 -1.07,7.82c-0.93,1.41 -2.86,3.02 -4.31,3.57c-1.44,0.54 -3.88,0.71 -5.43,0.38c-1.54,-0.34 -5.75,-3.29 -9.34,-6.55c-6.54,-5.92 -6.54,-5.92 -13.65,-5.92c-5.46,0 -7.9,-0.48 -10.48,-2.08c-3.03,-1.87 -3.91,-1.97 -8.57,-0.97c-3.91,0.84 -6.99,0.81 -12.44,-0.1c-5.51,-0.93 -7.86,-0.94 -9.78,-0.07c-1.4,0.64 -4.17,3.43 -6.17,6.21c-2,2.78 -4.45,5.5 -5.46,6.03c-1,0.54 -3.42,0.98 -5.38,0.98c-2.15,0 -4.31,-0.74 -5.43,-1.86c-1.03,-1.03 -4.28,-6.48 -7.23,-12.13c-2.96,-5.65 -6.34,-10.9 -7.51,-11.67c-1.33,-0.87 -4.39,-1.34 -8.02,-1.23c-4.7,0.14 -9.03,-0.87 -21.51,-4.99c-12.78,-4.22 -16.07,-4.97 -18,-4.11c-1.3,0.57 -3.9,2.15 -5.77,3.52c-1.87,1.36 -4.47,2.47 -5.79,2.47c-1.32,0 -3.56,-1.16 -4.97,-2.57c-2.05,-2.05 -2.46,-3.23 -2.02,-5.75c0.3,-1.75 0.86,-4.63 1.23,-6.39c0.62,-2.91 0.36,-3.41 -2.76,-5.25c-1.9,-1.12 -4.05,-3.15 -4.78,-4.51c-0.72,-1.36 -2.76,-2.95 -4.52,-3.53c-1.76,-0.59 -4.64,-2.85 -6.39,-5.03c-3.01,-3.74 -3.51,-3.97 -8.58,-3.97c-5.38,0 -5.38,0 -9.74,-5.75c-3.03,-3.99 -5.15,-5.84 -6.96,-6.06c-2.05,-0.24 -3.05,0.44 -4.79,3.27c-1.22,1.96 -3.04,4.01 -4.05,4.55c-1.02,0.55 -3.28,0.99 -5.03,0.99c-2.37,0 -4.18,-1 -7.07,-3.88c-3.56,-3.56 -3.88,-4.34 -3.88,-9.35c0,-3.95 -0.48,-5.88 -1.75,-6.99c-0.96,-0.85 -3.19,-2.27 -4.95,-3.16c-1.76,-0.89 -4.36,-1.62 -5.78,-1.62c-1.42,0 -4.12,-0.64 -6,-1.43c-2.6,-1.08 -4.14,-2.85 -6.43,-7.38c-1.65,-3.28 -4.83,-7.53 -7.07,-9.44c-3.62,-3.1 -4.86,-3.54 -11.24,-4c-5.84,-0.42 -7.5,-0.92 -8.97,-2.74c-1.16,-1.43 -1.81,-3.89 -1.82,-6.87c0,-2.55 -0.47,-6.32 -1.04,-8.36c-0.56,-2.05 -2.58,-5.65 -4.47,-8c-1.9,-2.36 -4.55,-6.63 -5.9,-9.5c-1.53,-3.27 -3.69,-6 -5.76,-7.29c-2.3,-1.42 -4.28,-1.89 -6.45,-1.5c-1.72,0.3 -4.28,0.11 -5.7,-0.42c-1.42,-0.54 -3.27,-2.33 -4.12,-3.98c-0.85,-1.64 -1.55,-4.25 -1.54,-5.79c0,-1.54 0.79,-3.98 1.75,-5.42c0.95,-1.45 2.58,-3.81 3.61,-5.25c1.71,-2.42 1.74,-2.82 0.29,-5.03c-0.86,-1.31 -3.28,-3.23 -5.37,-4.25c-3.39,-1.65 -3.88,-2.38 -4.63,-6.85c-0.46,-2.75 -1.14,-5.61 -1.51,-6.35c-0.37,-0.74 -2.47,-1.96 -4.66,-2.71c-2.2,-0.75 -5,-2.53 -6.24,-3.95c-1.24,-1.43 -2.25,-3.55 -2.25,-4.7c0,-1.18 1.81,-3.77 4.13,-5.91c2.82,-2.6 3.95,-4.37 3.58,-5.59c-0.3,-0.99 -1.02,-3.14 -1.6,-4.79c-0.58,-1.65 -1.31,-4.66 -1.62,-6.7c-0.33,-2.17 -2.04,-5.46 -4.14,-7.98c-3.47,-4.15 -3.56,-4.47 -2.82,-9.8c0.42,-3.04 0.78,-7.29 0.81,-9.45c0.04,-3.24 -0.47,-4.3 -2.87,-6c-1.6,-1.14 -4.16,-3.27 -5.69,-4.74c-1.89,-1.82 -2.78,-3.69 -2.78,-5.83c0,-2.35 1.01,-4.16 3.95,-7.07c2.51,-2.49 4.2,-5.23 4.63,-7.52c0.37,-1.98 0.46,-8.11 0.2,-13.61c-0.48,-9.89 -0.53,-10.05 -3.75,-12.57c-3.02,-2.36 -3.21,-2.87 -2.66,-6.88c0.58,-4.25 0.51,-4.37 -3.38,-6.35c-2.18,-1.12 -4.68,-3.13 -5.56,-4.47c-1.08,-1.65 -1.39,-3.44 -0.94,-5.48c0.36,-1.66 1.81,-3.93 3.22,-5.04c1.41,-1.1 3.15,-2.01 3.88,-2.01c0.72,0 2.51,-0.54 3.97,-1.21c2.49,-1.13 2.61,-1.49 1.93,-5.75c-0.4,-2.5 -0.65,-7.11 -0.55,-10.24c0.18,-5.71 0.18,-5.71 -5.63,-7.33c-3.36,-0.94 -6.76,-2.67 -8.06,-4.11c-1.49,-1.63 -2.25,-3.73 -2.25,-6.19c0,-2.05 0.73,-4.77 1.63,-6.05c0.9,-1.28 3.13,-2.96 4.97,-3.73c1.83,-0.76 5.77,-1.39 8.75,-1.39c3.11,0 5.84,-0.53 6.44,-1.25c0.57,-0.69 1.82,-4.85 2.79,-9.25c0.96,-4.4 2.05,-11.15 2.42,-15c0.36,-3.85 1.11,-8.08 1.66,-9.4c0.65,-1.57 0.66,-4.08 0.03,-7.26c-0.91,-4.62 -0.78,-5.16 2.68,-10.75c1.99,-3.24 3.63,-6.53 3.63,-7.3c0,-0.78 -1.31,-2.67 -2.92,-4.21c-1.6,-1.54 -3.19,-3.89 -3.53,-5.23c-0.35,-1.39 0.08,-3.87 0.99,-5.8c0.92,-1.93 2.87,-3.89 4.58,-4.6c2.29,-0.95 3.87,-0.97 6.8,-0.09c2.1,0.63 4.32,1.14 4.94,1.14c0.62,0 2.48,-1.87 4.13,-4.15c1.94,-2.68 3.01,-5.36 3.01,-7.55c0,-1.87 0.71,-4.77 1.57,-6.44c0.97,-1.88 3.22,-3.76 5.89,-4.95c2.38,-1.05 4.6,-2.62 4.93,-3.49c0.34,-0.87 0.61,-2.56 0.61,-3.75c0.01,-1.19 0.87,-3.59 1.93,-5.33c1.15,-1.88 4.45,-4.51 8.16,-6.5c5.73,-3.07 6.71,-4.12 12.02,-12.84c3.18,-5.23 5.81,-10.12 5.84,-10.87c0.03,-0.75 -1.3,-2.9 -2.95,-4.78c-1.94,-2.22 -3,-4.5 -3,-6.5c0,-1.96 1.3,-4.86 3.59,-7.97c1.97,-2.69 4.7,-5.16 6.05,-5.51c1.68,-0.42 4.7,0.41 9.4,2.58c3.81,1.75 7.38,2.91 7.94,2.56c0.56,-0.34 1.02,-1.4 1.02,-2.35c0,-0.94 0.7,-2.71 1.55,-3.93c0.93,-1.33 3.06,-2.46 5.29,-2.82c3,-0.48 4.16,-1.36 5.97,-4.5c1.24,-2.15 2.68,-3.91 3.22,-3.91c0.53,0 2.77,-1.63 4.97,-3.62c2.71,-2.45 4.01,-4.46 4.02,-6.25c0.01,-1.44 0.88,-4.51 1.92,-6.8c1.04,-2.29 2.89,-4.71 4.12,-5.36c1.34,-0.72 3.87,-0.95 6.34,-0.57c2.25,0.34 5.71,0.88 7.69,1.2c3.14,0.51 4.14,0.09 8.19,-3.41c3.62,-3.14 5.74,-4.14 9.91,-4.71c4.2,-0.57 6.17,-1.51 9.45,-4.51c2.27,-2.09 5.42,-4.45 7,-5.25c1.57,-0.8 5.9,-2.45 9.61,-3.67c3.9,-1.28 7.38,-3.12 8.25,-4.35c0.83,-1.18 1.5,-3.09 1.5,-4.25c0,-1.15 -1.12,-3.15 -2.48,-4.44c-1.37,-1.28 -2.77,-3.8 -3.1,-5.6c-0.34,-1.81 -0.09,-4.88 0.55,-6.83c0.65,-1.95 2.33,-4.46 3.74,-5.56c1.57,-1.24 4.06,-2.02 6.46,-2.02c2.15,0 5.03,0.74 6.41,1.64c1.37,0.9 3.63,3.57 5.01,5.92c1.6,2.74 3.62,4.67 5.61,5.36c1.7,0.59 4.35,1.08 5.89,1.08c1.54,0 3.11,-0.52 3.51,-1.16c0.39,-0.64 0.85,-3.6 1.02,-6.58c0.16,-2.98 0.58,-6.32 0.93,-7.43c0.36,-1.11 2.16,-2.65 4.01,-3.42c1.86,-0.78 5.44,-1.41 7.96,-1.41c2.52,0 5.79,0.64 7.28,1.43c1.48,0.79 3.6,2.81 4.7,4.5c1.1,1.68 2.62,3.07 3.38,3.07c0.76,0 2.95,-0.97 4.87,-2.15c3.43,-2.13 3.57,-2.13 8.41,-0.39c4.93,1.77 4.93,1.77 11.56,-1.59c5.88,-2.99 6.81,-3.87 8.2,-7.77c0.87,-2.42 2.76,-5.28 4.21,-6.35c1.77,-1.32 3.35,-1.73 4.84,-1.26c1.55,0.49 3.39,3.29 6.16,9.36c2.18,4.76 4.7,9.21 5.6,9.9c0.91,0.69 2.55,1.25 3.64,1.25c1.1,0 5.55,-1.46 9.91,-3.24c6.18,-2.52 8.25,-3.89 9.44,-6.25c0.84,-1.65 2.2,-3.79 3.04,-4.74c0.83,-0.95 3.07,-2.02 4.97,-2.38c1.91,-0.36 5.2,-0.13 7.31,0.5c2.12,0.64 4.79,2.35 5.94,3.81c1.14,1.45 2.57,4.6 3.17,6.98c0.83,3.32 1.67,4.49 3.53,4.96c1.35,0.33 6.35,0.31 11.13,-0.06c7.56,-0.59 9.81,-0.35 17.31,1.83c4.73,1.38 10.76,3.65 13.39,5.05c2.64,1.4 6.31,2.54 8.17,2.54c1.86,0 6.04,-1.12 9.3,-2.49c3.33,-1.4 6.7,-2.21 7.72,-1.85c0.99,0.36 4.4,2.22 7.57,4.15c5.77,3.5 5.77,3.5 11.07,-0.16c2.92,-2.01 6.3,-3.65 7.52,-3.65c1.21,0 3.65,0.61 5.42,1.36c1.77,0.75 4.07,2.31 5.1,3.47c1.13,1.28 2.12,4.38 2.5,7.84c0.54,5 1,5.94 3.62,7.46c1.65,0.96 6.38,2.64 10.5,3.74c6.57,1.75 8,2.56 11.5,6.57c2.94,3.36 4.73,4.57 6.75,4.57c1.51,-0.01 3.65,0.89 4.75,1.99c1.1,1.1 2,3.05 2,4.34c0,1.86 0.81,2.59 3.92,3.52c3.34,1 4.18,1.85 5.65,5.68c0.94,2.48 3.03,5.78 4.62,7.34c1.6,1.56 5.25,4.03 8.12,5.48c2.92,1.48 6.9,2.64 9.02,2.64c2.09,0 4.63,0.45 5.65,0.99c1.02,0.55 2.62,3.36 3.56,6.25c0.93,2.89 3.06,6.69 4.71,8.44c1.66,1.75 4.19,3.62 5.63,4.14c1.44,0.53 4.51,1.47 6.82,2.09c2.35,0.64 5.1,2.29 6.25,3.75c1.48,1.89 2.05,4.08 2.05,7.92c0,2.91 0.38,5.53 0.83,5.82c0.46,0.28 2.48,0.01 4.5,-0.61c2.69,-0.83 4.29,-0.83 6.11,0c1.35,0.62 3.24,2.32 4.2,3.78c1.06,1.62 1.72,4.49 1.69,7.3c-0.03,2.84 -1.07,6.76 -2.68,10.13c-1.59,3.32 -2.63,7.23 -2.64,9.87c-0.01,3.96 0.48,4.85 5.1,9.34c4.75,4.59 5.08,5.22 4.54,8.62c-0.47,2.96 -0.03,4.48 2.24,7.86c1.56,2.3 3.34,6.82 3.97,10.03c0.64,3.21 2.28,7.49 3.65,9.52c1.79,2.63 4.61,4.67 9.87,7.17c4.06,1.93 7.65,4.23 8,5.13c0.34,0.89 0.63,3.27 0.64,5.29c0,2.02 0.34,4.16 0.75,4.77c0.4,0.6 3.72,2.97 7.37,5.27c4.2,2.64 7.07,5.22 7.83,7.06c0.87,2.1 0.9,3.44 0.12,4.9c-0.59,1.11 -2.99,3.07 -5.33,4.36c-2.74,1.5 -4.38,3.15 -4.58,4.6c-0.27,1.86 0.52,2.61 4.5,4.3c2.65,1.12 5.87,2.56 7.16,3.19c1.28,0.63 2.91,2.29 3.61,3.68c0.71,1.4 1.57,4.15 1.93,6.11c0.35,1.96 0.17,4.93 -0.41,6.59c-0.58,1.67 -2.39,4.01 -4.01,5.21c-1.63,1.21 -2.96,2.67 -2.96,3.27c0,0.59 1.19,2.49 2.65,4.22c1.46,1.73 3.94,5.84 5.5,9.14c1.57,3.3 2.85,6.76 2.85,7.69c0,0.93 -1.78,3.75 -3.96,6.26c-2.28,2.64 -4.24,6.12 -4.64,8.23c-0.64,3.41 -0.39,3.92 3.47,7.24c3.7,3.19 4.16,4.06 4.15,7.93c-0.01,2.39 -0.66,5.77 -1.45,7.5c-0.96,2.09 -1.58,8.01 -1.86,17.65c-0.23,7.98 -0.95,15.89 -1.61,17.59c-0.65,1.69 -3.19,4.5 -5.64,6.23c-4.15,2.92 -4.46,3.45 -4.46,7.61c0,3.98 -0.5,4.97 -4.47,8.89c-2.46,2.42 -4.94,5.62 -5.5,7.11c-0.57,1.48 -1.03,4.71 -1.03,7.17c0,2.51 0.88,6.21 2,8.4c1.1,2.16 2,4.87 2,6.03c0,1.15 -0.47,2.98 -1.04,4.05c-0.83,1.55 -0.53,2.62 1.5,5.28c1.73,2.27 2.53,4.57 2.52,7.23c-0.01,2.15 -0.88,5.79 -1.92,8.08c-1.04,2.3 -2.94,4.85 -4.23,5.68c-1.28,0.83 -3.99,1.8 -6.01,2.18c-2.03,0.37 -4.34,1.41 -5.13,2.32c-0.79,0.91 -2.42,4.67 -3.63,8.37c-2.2,6.72 -2.2,6.72 1.07,10.79c2.29,2.85 3.27,5.12 3.27,7.55c0,2.23 -0.77,4.26 -2.14,5.63c-1.65,1.65 -3.22,2.1 -6.83,1.96c-4.27,-0.16 -5,0.17 -8.02,3.59c-2.72,3.07 -3.33,4.6 -3.37,8.38c-0.03,3.2 0.59,5.42 2.03,7.24c1.14,1.45 5.08,4.44 8.75,6.65c3.67,2.21 7.81,4.92 9.19,6.02c1.42,1.13 4.82,2.28 7.79,2.63c4.06,0.48 7.05,0.08 12.96,-1.77c5.76,-1.79 8.66,-3.36 11.57,-6.24c2.13,-2.12 4.78,-5.94 5.9,-8.5c1.11,-2.56 6.3,-14.32 11.52,-26.15c5.23,-11.83 11.3,-26 13.49,-31.5c2.19,-5.5 5.76,-15.31 7.94,-21.8c2.17,-6.5 5.04,-16.62 6.38,-22.5c1.34,-5.89 3.1,-17.45 3.92,-25.7c0.82,-8.25 2.17,-23.55 3,-33.99c0.84,-10.44 1.52,-23.94 1.52,-30c0,-6.06 -0.46,-17.08 -1.03,-24.51c-0.56,-7.43 -1.7,-17.77 -2.53,-23c-0.83,-5.23 -3.8,-19.4 -6.6,-31.5c-2.8,-12.1 -6.81,-27.9 -8.92,-35.12c-2.1,-7.21 -6.13,-19.03 -8.95,-26.26c-2.81,-7.22 -7.55,-17.88 -10.52,-23.68c-2.98,-5.8 -11.53,-20.31 -19.01,-32.24c-7.48,-11.94 -16.82,-25.97 -20.75,-31.2c-3.94,-5.23 -13.91,-16.29 -22.17,-24.59c-8.26,-8.3 -21.54,-20.47 -29.52,-27.05c-7.98,-6.58 -17.2,-14 -20.5,-16.5c-3.3,-2.5 -12.75,-9.27 -21,-15.06c-8.25,-5.79 -18.15,-12.46 -22,-14.82c-3.85,-2.36 -11.05,-6.5 -16,-9.2c-4.95,-2.71 -13.52,-6.9 -19.05,-9.31c-5.53,-2.41 -18.3,-7.35 -28.38,-10.97c-10.09,-3.62 -22.22,-7.71 -26.96,-9.08c-4.73,-1.38 -14.52,-3.59 -21.74,-4.93c-7.22,-1.33 -20.04,-2.9 -28.5,-3.49c-8.45,-0.59 -32.92,-1.17 -54.37,-1.29c-28.6,-0.15 -41.4,0.15 -48,1.14c-4.95,0.74 -15.48,2.68 -23.4,4.31c-7.93,1.62 -18.98,4.48 -24.56,6.35c-5.59,1.87 -16.65,6.14 -24.6,9.5c-7.94,3.36 -23.44,10.51 -34.44,15.89c-11,5.38 -26.75,13.74 -35,18.57c-8.25,4.83 -20.62,12.5 -27.5,17.05c-6.88,4.55 -18.56,13.61 -25.96,20.13c-7.41,6.52 -19.51,18.6 -26.9,26.85c-7.39,8.25 -18.07,20.54 -23.72,27.31c-5.66,6.78 -12.96,16.23 -16.23,21c-3.27,4.78 -11.92,19.71 -19.23,33.19c-7.31,13.48 -15.07,28.32 -17.25,33c-2.18,4.68 -5.75,13.45 -7.92,19.5c-2.17,6.05 -5.69,18.2 -7.81,27c-2.12,8.8 -5.91,26.12 -8.41,38.5c-2.5,12.38 -5.05,27.16 -5.66,32.86c-0.66,6.1 -0.93,19.87 -0.66,33.5c0.4,19.94 0.97,26.6 4.15,48.14c2.03,13.75 5,31.52 6.6,39.5c1.59,7.98 4.48,19.94 6.41,26.58c1.94,6.65 6.03,18.35 9.1,26c3.07,7.66 8.24,18.93 11.48,25.05c3.24,6.12 9.8,17.82 14.58,26c4.78,8.18 12.22,20.41 16.53,27.18c4.32,6.76 10.96,16.44 14.78,21.5c3.81,5.05 11.24,13.99 16.5,19.85c5.26,5.87 14.87,14.91 21.34,20.1c6.48,5.19 18.3,14.29 26.28,20.21c7.98,5.92 21.12,15.17 29.22,20.55c8.1,5.39 20.02,12.49 26.5,15.79c6.48,3.29 18.76,8.92 27.28,12.49c8.52,3.57 19.55,7.93 24.5,9.67c4.95,1.74 15,4.93 22.33,7.08c7.33,2.15 17.91,4.79 23.5,5.86c5.59,1.08 16.69,2.47 24.67,3.09c7.98,0.62 20.35,1.51 27.5,1.99c7.15,0.47 24.25,0.69 38,0.49zm26.13,-43.51c1.17,0.02 2.63,-0.58 3.25,-1.32c0.62,-0.75 1.07,-4.51 1.01,-8.45c-0.08,-5.05 0.43,-8.18 1.75,-10.89c1.32,-2.71 2.87,-4.15 5.36,-5c1.92,-0.66 6.1,-1.22 9.28,-1.25c3.18,-0.03 7.23,0.56 9,1.32c1.77,0.76 4.77,3.01 6.67,5c1.89,1.99 4.25,3.62 5.24,3.62c1.14,0 2.55,-1.59 3.85,-4.36c1.13,-2.41 3.17,-4.87 4.55,-5.5c1.38,-0.63 3.6,-1.14 4.93,-1.14c1.34,0 5.48,1.15 9.21,2.56c5.24,1.99 7.76,2.42 11.15,1.92c2.47,-0.36 5.32,-1.59 6.56,-2.83c1.3,-1.3 2.73,-4.73 3.53,-8.49c1.18,-5.59 1.15,-6.69 -0.32,-9.76c-1.44,-3.03 -1.48,-3.88 -0.27,-6.77c0.76,-1.82 3.07,-4.94 5.13,-6.95c2.15,-2.08 5.21,-3.91 7.17,-4.28c1.88,-0.35 5.3,-0.34 7.61,0.03c2.3,0.37 6.4,2.09 9.09,3.81c4.9,3.15 4.9,3.15 7.15,0.32c2.14,-2.67 2.53,-2.78 7.79,-2.13c4.91,0.62 5.66,0.47 6.61,-1.3c0.59,-1.1 1.07,-3.45 1.07,-5.22c0,-2.51 -0.87,-3.96 -3.94,-6.59c-2.17,-1.86 -4.22,-4.24 -4.55,-5.29c-0.33,-1.05 -2.82,-3.5 -5.52,-5.44c-2.7,-1.94 -5.63,-4.92 -6.51,-6.62c-0.88,-1.7 -2.12,-2.92 -2.76,-2.71c-0.64,0.21 -1.45,1.75 -1.78,3.4c-0.34,1.66 -0.94,3.53 -1.33,4.16c-0.39,0.64 -3.13,1.86 -6.08,2.71c-2.95,0.86 -8.22,3.42 -11.7,5.69c-3.48,2.27 -11.28,6.33 -17.33,9.03c-6.05,2.7 -14.93,6.45 -19.74,8.33c-4.81,1.89 -14.67,5.04 -21.91,7c-7.23,1.96 -15.47,4.43 -18.3,5.49c-2.84,1.06 -8.03,3.95 -11.55,6.43c-4.8,3.38 -7.32,4.5 -10.1,4.5c-2.04,0 -5.91,1.14 -8.59,2.53c-4.57,2.37 -5.3,2.46 -11.84,1.52c-3.83,-0.56 -8.79,-1.02 -11.02,-1.03c-2.65,-0.01 -6.91,-1.4 -12.33,-4.02c-4.55,-2.2 -9.29,-4 -10.54,-4c-1.25,0 -3.08,0.9 -4.08,2c-1,1.1 -2.95,2 -4.35,2c-1.4,0 -3.72,-1.13 -5.17,-2.51c-1.75,-1.69 -4.92,-3.01 -9.55,-3.99c-3.81,-0.8 -9.9,-1.47 -13.52,-1.48c-3.63,-0.01 -8.8,-0.69 -11.5,-1.52c-2.7,-0.82 -10.53,-2.2 -17.4,-3.06c-7.3,-0.91 -14.16,-2.36 -16.5,-3.48c-2.21,-1.06 -6.58,-3.4 -9.71,-5.19c-3.14,-1.8 -8.76,-6.53 -12.5,-10.51c-6.37,-6.77 -7.98,-7.83 -25.3,-16.58c-10.18,-5.15 -21.02,-10.78 -24.09,-12.52c-3.07,-1.75 -8.74,-4.24 -12.59,-5.55c-3.85,-1.31 -8.87,-3.56 -11.15,-5c-2.28,-1.44 -7.48,-5.95 -11.55,-10.02c-5.86,-5.86 -8.65,-7.86 -13.44,-9.6c-3.32,-1.21 -6.91,-3.17 -7.98,-4.35c-1.08,-1.18 -2.52,-3.94 -3.21,-6.14c-0.69,-2.2 -2.11,-5.7 -3.15,-7.77c-1.05,-2.07 -6.91,-11.75 -13.03,-21.5c-6.12,-9.75 -13.03,-22 -15.35,-27.23c-2.33,-5.23 -6.02,-13.33 -8.2,-18c-2.19,-4.67 -4.47,-10.75 -5.08,-13.5c-0.6,-2.75 -1.57,-8.25 -2.15,-12.23c-0.57,-3.97 -1.94,-9.5 -3.04,-12.28c-1.3,-3.33 -1.99,-7.43 -1.99,-11.94c0,-4.88 -0.63,-8.29 -2.15,-11.72c-2.04,-4.57 -2.14,-6.14 -1.92,-29.47c0.23,-24.65 0.23,-24.65 -2.48,-30.37c-2.32,-4.92 -2.63,-6.61 -2.2,-12.04c0.34,-4.23 1.3,-7.59 2.88,-10.14c2.2,-3.54 2.37,-4.83 2.41,-18.31c0.04,-13.03 0.31,-15.31 2.73,-22.5c1.48,-4.4 3.42,-13.18 4.31,-19.5c1.2,-8.48 2.24,-12.42 3.97,-15c2.11,-3.17 2.23,-3.9 1.19,-7.74c-1.01,-3.74 -0.89,-4.77 1.06,-8.78c1.21,-2.49 2.2,-6.13 2.2,-8.08c0,-2.92 0.95,-4.55 5.38,-9.22c2.96,-3.13 7.54,-9.06 10.17,-13.18c2.63,-4.12 7.53,-10.65 10.87,-14.49c3.34,-3.85 10.09,-11.5 14.99,-17c4.9,-5.51 12.38,-13.88 16.61,-18.6c4.24,-4.72 8.94,-10.69 10.44,-13.25c1.93,-3.29 4.1,-5.35 7.39,-7.01c4.61,-2.32 4.65,-2.38 4.36,-6.94c-0.24,-3.73 0.07,-4.79 1.68,-5.65c1.09,-0.58 3.08,-1.06 4.42,-1.06c1.78,0 4.26,-2.03 9.08,-7.41c3.65,-4.08 8.62,-8.58 11.05,-10c2.44,-1.43 10.37,-4.84 17.64,-7.58c7.27,-2.75 17.98,-7.53 23.82,-10.63c5.83,-3.11 14.77,-8.33 19.86,-11.62c5.38,-3.48 12.29,-6.94 16.5,-8.28c3.98,-1.26 11.06,-4.03 15.74,-6.14c8.5,-3.84 8.5,-3.84 24,-3.89c14.37,-0.05 16.05,-0.26 23,-2.82c4.2,-1.54 10.67,-3.01 14.72,-3.34c5.11,-0.4 9.27,-0.08 14.21,1.13c5.08,1.23 7.92,1.44 10.36,0.77c2.42,-0.67 5.99,-0.43 12.7,0.86c7.75,1.49 11.29,1.64 20.92,0.91c7.04,-0.53 14.22,-0.5 18.3,0.07c3.69,0.52 10.89,2.29 16,3.92c5.11,1.63 12.21,3.66 15.79,4.5c3.58,0.83 10.55,1.54 15.5,1.56c6.93,0.03 10.04,0.51 13.5,2.1c2.48,1.14 9.84,3.85 16.37,6.03c6.53,2.17 13.96,5.01 16.5,6.31c2.55,1.3 5.82,3.64 7.27,5.21c1.45,1.56 3.59,4.73 4.74,7.03c1.52,3.04 4.37,5.8 10.31,10c4.52,3.2 11.91,9.29 16.42,13.54c6.34,5.98 10.31,8.74 17.54,12.21c7.72,3.7 10.93,6.02 18.41,13.27c4.98,4.83 10.02,10.18 11.2,11.88c1.18,1.7 3.11,5.67 4.29,8.82c1.18,3.15 2.89,5.96 3.8,6.25c0.91,0.29 2.93,1.01 4.48,1.59c1.56,0.58 3.26,2.18 3.78,3.55c0.75,1.96 0.4,3.54 -1.67,7.5c-2.18,4.18 -2.51,5.77 -1.95,9.6c0.37,2.53 1.56,6.62 2.64,9.1c1.09,2.48 3.73,7.2 5.87,10.5c2.15,3.3 5.09,9.15 6.53,13c1.45,3.85 4.52,10.15 6.82,14c2.31,3.85 4.81,8.35 5.56,10c0.76,1.65 3.05,8.09 5.11,14.32c2.46,7.46 4.46,11.83 5.86,12.81c1.54,1.08 2.12,2.54 2.12,5.39c0,2.78 1.56,6.88 5.4,14.25c3.76,7.21 5.62,12.06 6.11,15.97c0.56,4.45 0.25,6.97 -1.47,12.14c-2.17,6.53 -2.17,6.53 -0.11,11.2c1.14,2.57 2.07,6.09 2.07,7.82c0,2.19 -1.21,4.6 -3.99,7.97c-2.19,2.65 -4.67,7.11 -5.5,9.91c-0.83,2.79 -1.5,8.26 -1.49,12.15c0.01,3.89 0.69,10.86 1.51,15.5c0.82,4.64 1.23,9.37 0.9,10.5c-0.32,1.14 -2.21,6.12 -4.2,11.07c-3.54,8.81 -3.62,9.36 -4.21,26.5c-0.6,17.5 -0.6,17.5 -4.31,24.08c-2.08,3.69 -3.71,7.96 -3.71,9.71c0,1.71 -0.51,4.24 -1.14,5.61c-0.62,1.38 -2.49,2.97 -4.15,3.55c-1.65,0.58 -3.73,1.06 -4.61,1.06c-0.97,0.01 -2.78,2.47 -4.6,6.25c-2.49,5.17 -3.74,6.59 -7.29,8.3c-4.29,2.06 -4.29,2.06 -2.23,4.69c1.14,1.45 2.74,4.22 3.55,6.16c0.81,1.94 1.47,4.83 1.47,6.42c0,1.6 0.94,4.09 2.09,5.56c1.15,1.46 3.39,3.33 4.99,4.15c1.78,0.92 3.97,1.25 5.66,0.85c1.52,-0.36 4.66,-2.68 6.97,-5.15c4.03,-4.3 4.41,-4.48 8.37,-3.84c2.6,0.41 4.66,0.23 5.53,-0.49c0.77,-0.64 1.37,-2.11 1.35,-3.28c-0.02,-1.17 -1.37,-3.69 -3,-5.59c-1.9,-2.22 -2.96,-4.58 -2.96,-6.56c0,-1.7 0.94,-5.87 2.09,-9.27c1.28,-3.79 3.17,-7.09 4.9,-8.55c1.55,-1.31 4.68,-2.67 6.94,-3.03c3.21,-0.52 4.55,-1.37 6.09,-3.9c1.09,-1.77 2.25,-4.7 2.59,-6.49c0.49,-2.57 0.06,-3.98 -2,-6.68c-1.43,-1.89 -2.61,-4.39 -2.61,-5.56c0,-1.17 0.46,-3 1.03,-4.06c0.8,-1.49 0.46,-2.99 -1.5,-6.67c-1.69,-3.18 -2.53,-6.34 -2.53,-9.54c0,-2.64 0.7,-6.47 1.55,-8.51c0.85,-2.05 3.27,-5.52 5.38,-7.72c2.91,-3.04 3.96,-5.08 4.39,-8.5c0.47,-3.85 1.29,-5.15 5.65,-9c4.73,-4.18 5.17,-4.96 6.16,-11c0.59,-3.62 0.78,-10.71 0.44,-16c-0.49,-7.56 -0.31,-9.93 0.87,-11.62c0.82,-1.17 1.79,-3.95 2.14,-6.17c0.61,-3.82 0.45,-4.17 -2.94,-6.38c-1.97,-1.28 -4.08,-3.51 -4.68,-4.96c-0.81,-1.93 -0.79,-3.8 0.05,-7c0.67,-2.54 2.65,-5.92 4.74,-8.09c3.45,-3.56 3.54,-3.86 2.45,-7.5c-0.62,-2.08 -2.48,-5.8 -4.14,-8.28c-1.65,-2.48 -3.74,-5.51 -4.64,-6.74c-1.05,-1.42 -1.42,-3.14 -1.02,-4.73c0.35,-1.37 1.97,-3.18 3.6,-4.03c1.63,-0.85 3.25,-2.66 3.6,-4.02c0.34,-1.37 0.34,-3.99 -0.01,-5.83c-0.34,-1.83 -1.63,-4.25 -2.86,-5.37c-1.22,-1.12 -3.89,-2.56 -5.92,-3.21c-2.03,-0.65 -4.84,-2.09 -6.25,-3.2c-1.41,-1.11 -2.56,-3.01 -2.56,-4.22c0,-1.21 0.7,-3.21 1.57,-4.44c0.86,-1.23 3.33,-3.14 5.5,-4.24c2.5,-1.28 3.93,-2.7 3.93,-3.92c0,-1.29 -2.42,-3.41 -7.49,-6.57c-6.43,-4.01 -7.63,-5.21 -8.52,-8.51c-0.57,-2.11 -0.97,-4.21 -0.89,-4.66c0.07,-0.44 0.08,-1.55 0.02,-2.44c-0.07,-1.01 -2.32,-2.53 -5.82,-3.95c-3.13,-1.27 -7.34,-3.96 -9.35,-5.97c-2.02,-2.02 -4.4,-5.83 -5.31,-8.49c-0.9,-2.65 -1.64,-5.79 -1.64,-6.99c0,-1.19 -1.34,-4.15 -2.98,-6.57c-2.18,-3.21 -2.99,-5.59 -3,-8.8c-0.02,-3.89 -0.49,-4.81 -4,-7.81c-2.41,-2.07 -4.43,-4.92 -5.13,-7.25c-0.63,-2.12 -0.86,-5.35 -0.51,-7.19c0.35,-1.84 1.76,-5.76 3.13,-8.7c1.37,-2.94 2.49,-6.78 2.49,-8.53c0,-1.74 -0.72,-4.21 -1.6,-5.47c-1.49,-2.12 -2.08,-2.24 -7.99,-1.6c-6.32,0.67 -6.38,0.66 -7.44,-2.14c-0.59,-1.55 -0.79,-4.51 -0.44,-6.58c0.53,-3.17 0.24,-4.16 -1.9,-6.29c-1.4,-1.4 -3.47,-2.54 -4.62,-2.54c-1.14,0 -3.75,-0.7 -5.79,-1.55c-2.05,-0.85 -5.4,-3.18 -7.45,-5.19c-2.46,-2.39 -4.25,-5.41 -5.25,-8.84c-0.83,-2.86 -2.23,-5.48 -3.1,-5.81c-0.87,-0.34 -3.4,-0.61 -5.63,-0.61c-2.68,0 -5.85,-1.03 -9.41,-3.07c-2.95,-1.69 -6.71,-4.41 -8.35,-6.05c-1.64,-1.64 -3.51,-4.74 -4.15,-6.88c-0.99,-3.32 -1.78,-4.09 -5.27,-5.2c-3.5,-1.11 -4.24,-1.84 -5.01,-4.95c-0.79,-3.21 -1.35,-3.71 -4.64,-4.24c-2.83,-0.45 -4.68,-1.71 -7.6,-5.15c-3.38,-3.99 -4.67,-4.74 -10.36,-6.04c-3.58,-0.81 -8.29,-2.49 -10.48,-3.72c-2.19,-1.23 -4.55,-3.36 -5.24,-4.72c-0.69,-1.36 -1.26,-4.19 -1.27,-6.28c-0.01,-2.68 -0.73,-4.51 -2.46,-6.25c-1.65,-1.64 -3.55,-2.44 -5.75,-2.41c-2.17,0.03 -4.49,1.06 -6.76,3c-2.21,1.89 -4.57,2.95 -6.5,2.94c-1.67,-0.01 -4.84,-1.12 -7.04,-2.46c-2.2,-1.35 -5,-2.98 -6.22,-3.63c-1.86,-0.99 -3.19,-0.75 -8.13,1.46c-3.24,1.46 -7.45,2.65 -9.34,2.65c-1.9,0 -6.59,-1.56 -10.53,-3.5c-3.9,-1.92 -9.95,-4.22 -13.43,-5.12c-4.78,-1.22 -8.54,-1.46 -15.34,-0.96c-5.81,0.42 -10.16,0.26 -12.24,-0.47c-2.7,-0.95 -3.58,-2.1 -5.4,-7.09c-1.61,-4.41 -2.94,-6.36 -5.08,-7.47c-1.6,-0.83 -4.54,-1.37 -6.54,-1.2c-3.12,0.27 -4,0.95 -6.25,4.79c-2.3,3.95 -3.55,4.87 -10.54,7.75c-4.48,1.85 -9.68,3.27 -11.97,3.27c-2.22,0 -4.98,-0.66 -6.13,-1.46c-1.14,-0.8 -3.82,-5.32 -5.94,-10.03c-2.63,-5.83 -4.34,-8.48 -5.36,-8.28c-0.82,0.15 -2.05,1.41 -2.74,2.78c-0.69,1.37 -1.83,3.84 -2.54,5.49c-0.92,2.15 -3.12,3.94 -7.78,6.32c-4.9,2.5 -7.36,3.19 -10,2.83c-1.93,-0.27 -4.71,-0.8 -6.2,-1.18c-1.94,-0.49 -3.52,-0.1 -5.65,1.42c-1.63,1.16 -3.9,2.11 -5.05,2.11c-1.16,0 -2.89,-0.82 -3.85,-1.83c-0.96,-1 -2.76,-3.03 -3.99,-4.5c-1.97,-2.34 -2.98,-2.67 -8.18,-2.67c-4.06,0 -6.43,0.5 -7.51,1.57c-1.06,1.06 -1.57,3.42 -1.57,7.28c0,3.41 -0.59,6.55 -1.48,7.81c-0.81,1.16 -2.65,2.41 -4.09,2.77c-1.46,0.37 -5.03,-0.04 -8.06,-0.92c-4.75,-1.38 -5.81,-2.19 -8.38,-6.38c-1.63,-2.64 -4.11,-5.32 -5.52,-5.96c-1.41,-0.64 -3.24,-1.17 -4.06,-1.17c-0.83,0 -2.61,1.1 -3.96,2.45c-1.76,1.77 -2.44,3.52 -2.41,6.25c0.03,2.73 0.88,4.78 3,7.26c1.8,2.1 2.96,4.6 2.96,6.35c0,1.93 -1.09,3.98 -3.26,6.15c-2.1,2.1 -5.37,3.87 -9.22,4.99c-3.28,0.95 -7.65,2.6 -9.73,3.65c-2.07,1.06 -4.51,3.07 -5.42,4.46c-0.92,1.4 -2.93,3.19 -4.47,3.99c-1.54,0.8 -4.52,1.45 -6.63,1.45c-2.1,0 -4.94,0.76 -6.3,1.69c-1.36,0.93 -2.85,2.32 -3.32,3.09c-0.47,0.78 -2.39,2.05 -4.27,2.84c-2.99,1.24 -4.17,1.23 -9.31,-0.1c-3.24,-0.84 -6.62,-1.25 -7.52,-0.9c-0.89,0.34 -2.28,1.9 -3.09,3.45c-0.8,1.56 -1.46,3.52 -1.46,4.36c0,0.84 -0.71,3.31 -1.58,5.48c-1.07,2.67 -3.15,5.03 -6.42,7.27c-2.67,1.83 -5.54,4.77 -6.39,6.54c-0.89,1.84 -2.53,3.44 -3.83,3.71c-1.25,0.27 -3.14,0.62 -4.2,0.78c-1.11,0.17 -2.32,1.55 -2.88,3.29c-0.53,1.65 -1.41,3.56 -1.96,4.25c-0.54,0.69 -2.17,1.25 -3.61,1.24c-1.45,-0.01 -5.04,-1.13 -7.98,-2.5c-2.94,-1.37 -5.93,-2.49 -6.63,-2.49c-0.71,0 -2.91,1.8 -4.9,4c-1.99,2.2 -3.62,4.64 -3.62,5.41c0,0.77 1.57,3.29 3.5,5.59c1.93,2.3 3.5,5.11 3.5,6.24c0,1.13 -1.5,4.35 -3.34,7.16c-1.84,2.8 -4.86,7.68 -6.72,10.83c-2.91,4.92 -4.27,6.15 -9.68,8.74c-3.83,1.83 -6.65,3.89 -7.21,5.27c-0.5,1.24 -1.51,4.28 -2.23,6.76c-1.11,3.8 -2.01,4.85 -5.75,6.74c-2.44,1.22 -4.79,2.8 -5.24,3.5c-0.44,0.69 -0.82,2.61 -0.84,4.26c-0.02,1.65 -0.86,4.82 -1.87,7.04c-1.01,2.22 -3.32,5.29 -5.14,6.83c-2.28,1.91 -3.96,2.59 -5.39,2.16c-1.15,-0.33 -3.56,-0.88 -5.36,-1.2c-2.37,-0.43 -3.82,-0.1 -5.25,1.19c-1.09,0.98 -1.98,2.58 -1.98,3.54c0,0.96 1.57,3.64 3.5,5.94c1.93,2.3 3.5,5.19 3.5,6.42c0,1.22 -1.59,4.44 -3.53,7.15c-3.38,4.72 -3.51,5.19 -2.9,11.03c0.49,4.72 0.25,6.85 -1.06,9.38c-1.12,2.16 -1.48,4.37 -1.07,6.56c0.34,1.82 -0.09,6.38 -0.95,10.13c-0.87,3.76 -2.23,9.12 -3.03,11.92c-1.06,3.7 -2.16,5.41 -4.01,6.25c-1.4,0.64 -4.74,1.16 -7.43,1.16c-2.69,0 -6.05,0.44 -7.47,0.98c-1.41,0.54 -3.09,2.11 -3.72,3.5c-0.86,1.87 -0.86,3.15 -0.03,4.98c0.82,1.8 2.63,2.9 6.76,4.1c3.1,0.9 6.55,2.55 7.66,3.66c1.69,1.69 1.93,2.85 1.44,7.02c-0.33,2.74 -0.07,6.93 0.56,9.31c0.86,3.2 0.87,4.96 0.04,6.78c-0.72,1.58 -2.83,3.08 -5.94,4.23c-2.65,0.98 -5.41,2.23 -6.12,2.78c-0.72,0.54 -1.17,2.15 -1,3.57c0.2,1.76 1.34,3.11 3.54,4.21c1.78,0.89 3.92,2.18 4.75,2.87c0.94,0.78 1.51,2.96 1.51,5.73c0,3.63 0.54,4.98 2.83,7.13c2.63,2.45 2.88,3.35 3.4,12.15c0.31,5.23 0.24,12.17 -0.16,15.43c-0.62,5.17 -1.18,6.33 -4.39,9.1c-2.5,2.16 -3.68,4.02 -3.68,5.81c0,1.98 0.98,3.25 3.91,5.11c2.16,1.35 4.63,3.49 5.5,4.73c0.9,1.28 1.58,4.24 1.57,6.79c-0.02,2.49 -0.44,6.33 -0.95,8.53c-0.72,3.09 -0.59,4.46 0.55,6c0.82,1.1 2.6,3.53 3.95,5.4c1.45,1.99 2.47,4.77 2.47,6.72c0,1.83 0.96,5.31 2.14,7.73c1.34,2.75 1.91,5.29 1.52,6.78c-0.34,1.3 -2.2,3.39 -4.14,4.63c-2.07,1.33 -3.52,3.07 -3.52,4.23c0,1.08 1.01,2.6 2.25,3.38c1.24,0.77 3.94,1.94 6.01,2.6c2.06,0.65 4.2,2.02 4.75,3.04c0.54,1.02 0.99,3.93 0.99,6.46c0,4.49 0.11,4.65 4.43,6.5c2.44,1.04 4.91,2.8 5.5,3.9c0.59,1.1 1.05,3.49 1.03,5.31c-0.03,2.19 -1.05,4.5 -3,6.78c-1.9,2.22 -2.96,4.58 -2.96,6.56c0,1.7 0.56,3.81 1.25,4.69c0.83,1.06 3.36,1.73 7.49,2.01c4.85,0.31 6.82,0.94 8.88,2.84c1.46,1.34 3.52,4.37 4.58,6.73c1.06,2.36 3.19,5.73 4.72,7.5c1.54,1.76 3.61,4.79 4.6,6.71c0.98,1.92 2.12,6.81 2.51,10.87c0.44,4.46 1.27,7.7 2.1,8.23c0.75,0.48 3.48,0.88 6.05,0.88c2.58,0.01 5.82,0.45 7.2,0.98c1.38,0.52 4.38,2.63 6.65,4.69c2.27,2.05 5.45,6.34 7.06,9.52c2.26,4.49 3.54,5.91 5.67,6.33c1.5,0.29 4.66,0.97 7,1.52c2.35,0.54 5.82,1.99 7.73,3.23c1.9,1.24 3.98,3.49 4.61,5.02c0.64,1.52 0.9,4.35 0.58,6.29c-0.47,2.91 -0.08,4.08 2.18,6.61c1.88,2.1 3.68,3.08 5.66,3.08c1.93,0 3.42,-0.78 4.44,-2.32c0.85,-1.28 2.27,-3.22 3.16,-4.33c1.08,-1.33 2.83,-2 5.2,-2c2.14,0 4.45,0.78 5.75,1.95c1.19,1.07 3.46,3.83 5.05,6.14c2.66,3.86 3.16,4.14 6.37,3.62c1.91,-0.31 4.72,-0.05 6.24,0.58c1.53,0.63 3.81,2.68 5.09,4.54c1.27,1.86 3.49,3.68 4.93,4.04c1.44,0.36 5.5,3.6 9.02,7.2c6.17,6.28 6.38,6.67 5.65,10.18c-0.42,2.01 -0.8,5 -0.85,6.65c-0.05,2.39 0.4,3.07 2.2,3.32c1.35,0.19 3.96,-0.92 6.45,-2.75c2.88,-2.12 5.32,-3.07 7.88,-3.07c2.03,0 7.45,1.31 12.05,2.91c4.59,1.6 11.31,3.85 14.93,5c4.69,1.5 7.88,1.92 11.08,1.48c3.21,-0.44 5.41,-0.14 7.68,1.03c1.74,0.9 4.37,3.54 5.84,5.86c1.48,2.32 4.44,7.69 6.6,11.94c2.37,4.65 4.73,7.96 5.94,8.35c1.11,0.35 3.09,0.07 4.41,-0.64c1.31,-0.7 3.75,-3.4 5.41,-6c1.76,-2.74 4.33,-5.26 6.14,-6c1.71,-0.71 4.51,-1.23 6.21,-1.15c1.71,0.08 8.51,0.27 15.11,0.43c9.67,0.23 12.53,0.65 14.71,2.13c1.8,1.22 4.14,1.75 7,1.58c2.36,-0.14 5.55,-0.18 7.1,-0.09c1.83,0.11 4.61,1.86 8,5.02c2.85,2.67 6.09,5.35 7.19,5.97c1.1,0.62 2.96,1.13 4.13,1.15zm-244.32,-125.24c0.59,-0.2 1.22,-0.81 1.4,-1.36c0.18,-0.55 -0.71,-2.55 -1.98,-4.44c-1.31,-1.95 -3.15,-3.43 -4.27,-3.43c-1.23,0 -2.07,0.78 -2.26,2.12c-0.2,1.38 0.79,3.04 2.87,4.79c1.75,1.47 3.66,2.51 4.24,2.32zm252.64,-31.37c-1.9,0.29 -4.88,0.1 -6.62,-0.43c-1.74,-0.52 -4.33,-2.33 -5.75,-4.01c-1.95,-2.33 -2.58,-4.19 -2.58,-7.65c0,-4.04 0.47,-5.03 3.98,-8.37c2.46,-2.33 6.1,-4.45 9.49,-5.52c4.16,-1.31 6.42,-1.51 9.24,-0.81c2.55,0.64 4.47,2.03 6.09,4.43c1.85,2.72 2.27,4.43 1.92,7.66c-0.25,2.29 -1.45,5.56 -2.67,7.27c-1.22,1.71 -3.89,3.97 -5.93,5.01c-2.04,1.04 -5.27,2.13 -7.17,2.42zm-2.02,-3.42c1.34,0.03 4.39,-0.89 6.78,-2.04c2.43,-1.18 4.99,-3.36 5.82,-4.95c0.81,-1.57 1.47,-4.12 1.47,-5.68c0,-1.55 -0.7,-3.83 -1.56,-5.05c-1.03,-1.48 -2.58,-2.22 -4.63,-2.22c-1.69,0 -4.88,0.54 -7.09,1.2c-2.2,0.66 -5.51,2.63 -7.36,4.37c-2.01,1.89 -3.36,4.14 -3.36,5.58c0,1.32 0.72,3.44 1.61,4.7c0.88,1.26 2.57,2.68 3.75,3.16c1.18,0.47 3.24,0.89 4.57,0.93zm1.32,-7.12c-1.39,0.2 -2.5,-0.31 -2.89,-1.32c-0.34,-0.9 -0.16,-2.1 0.4,-2.66c0.57,-0.57 1.86,-0.87 2.88,-0.67c1.07,0.21 1.86,1.2 1.86,2.34c0,1.3 -0.78,2.1 -2.25,2.31zm-104.25,-1.25c-9.21,0.42 -11.36,0.19 -17.5,-1.89c-3.85,-1.31 -10.82,-4.24 -15.5,-6.51c-4.68,-2.26 -11.88,-5.93 -16,-8.14c-4.12,-2.22 -10.94,-5.17 -15.15,-6.58c-4.21,-1.4 -9.7,-3.9 -12.2,-5.56c-2.49,-1.65 -5.9,-5.07 -7.58,-7.59c-1.67,-2.52 -3.94,-7.02 -5.06,-9.99c-1.11,-2.97 -2.88,-7.07 -3.93,-9.11c-1.05,-2.03 -4.02,-6.4 -6.6,-9.7c-2.58,-3.3 -5.84,-8.25 -7.23,-11c-1.68,-3.29 -2.71,-7.27 -3.02,-11.62c-0.37,-5.05 0.02,-8.13 1.65,-13c1.17,-3.51 3.74,-9.05 5.71,-12.32c1.97,-3.27 5.31,-9.38 7.42,-13.58c2.11,-4.21 5.42,-9.03 7.34,-10.72c1.93,-1.69 4.77,-3.31 6.33,-3.6c1.55,-0.3 5.97,-0.82 9.82,-1.17c3.85,-0.35 8.86,-1.52 11.14,-2.6c2.27,-1.08 5.26,-3.63 6.64,-5.68c1.37,-2.04 3.51,-6.86 4.75,-10.71c1.23,-3.85 3.07,-8.64 4.07,-10.64c1.01,-2.01 3.72,-5.26 6.04,-7.24c2.31,-1.98 6.62,-4.51 9.57,-5.61c2.95,-1.11 7.5,-2.01 10.12,-2.01c2.93,0 6.45,0.86 9.21,2.25c3.12,1.57 5.18,3.57 6.87,6.66c1.82,3.32 2.62,6.84 3.25,14.31c0.46,5.45 1.35,10.89 1.97,12.09c0.62,1.21 2.59,3.99 4.36,6.19c1.77,2.2 4.19,5.89 5.37,8.21c1.36,2.69 2.14,6.07 2.14,9.35c0,3.68 -1.14,7.97 -4.02,15.12c-2.22,5.49 -4.29,12.53 -4.61,15.65c-0.33,3.13 -0.09,7.54 0.54,9.84c0.81,3 2.6,5.5 6.36,8.88c3.39,3.05 9.83,6.92 18.34,11.02c8.26,3.98 14.07,7.45 15.68,9.37c1.46,1.73 3.06,5.45 3.73,8.63c0.67,3.27 0.87,8.04 0.48,11.45c-0.38,3.22 -1.98,8.6 -3.57,11.96c-1.67,3.55 -5.2,8.42 -8.39,11.61c-3.03,3.03 -7.87,6.59 -10.77,7.91c-2.9,1.32 -7.97,3.12 -11.27,4c-3.3,0.88 -10.73,1.81 -16.5,2.07zm-3.21,-3.64c4.56,0.04 11.76,-0.65 16,-1.52c4.24,-0.88 10.01,-2.68 12.83,-4.01c2.81,-1.33 7.42,-4.73 10.24,-7.55c2.82,-2.81 6.37,-7.65 7.88,-10.74c2.4,-4.89 2.76,-6.79 2.76,-14.79c0,-7.69 -0.33,-9.63 -2.06,-12c-1.31,-1.79 -6.81,-5.19 -15.07,-9.32c-7.16,-3.58 -15,-7.96 -17.44,-9.75c-2.44,-1.79 -5.44,-4.74 -6.67,-6.54c-1.23,-1.81 -2.67,-5.6 -3.2,-8.42c-0.64,-3.35 -0.63,-7.26 0.02,-11.31c0.55,-3.41 2.33,-9.13 3.96,-12.72c1.62,-3.59 3.44,-8.32 4.03,-10.51c0.78,-2.89 0.76,-5.3 -0.06,-8.71c-0.69,-2.86 -2.73,-6.65 -5.15,-9.59c-2.21,-2.68 -4.74,-6.23 -5.61,-7.91c-0.9,-1.72 -1.92,-7.28 -2.35,-12.79c-0.56,-7.07 -1.36,-10.8 -2.93,-13.59c-1.19,-2.11 -3.53,-4.65 -5.21,-5.64c-1.87,-1.11 -5.03,-1.81 -8.19,-1.81c-2.96,0 -7.03,0.85 -9.6,1.99c-2.46,1.09 -5.95,3.24 -7.76,4.77c-1.82,1.53 -4.13,4.41 -5.14,6.41c-1.02,1.99 -2.79,6.81 -3.95,10.71c-1.16,3.91 -3.46,8.96 -5.1,11.23c-1.65,2.27 -4.86,5.08 -7.14,6.24c-2.64,1.35 -7.35,2.42 -12.89,2.94c-4.81,0.45 -10.04,1.49 -11.62,2.31c-1.58,0.82 -3.6,2.32 -4.5,3.34c-0.89,1.02 -5.55,9.51 -10.37,18.87c-8.29,16.14 -8.75,17.37 -8.8,23.5c-0.03,4.58 0.6,7.92 2.14,11.38c1.2,2.7 4.61,8.1 7.57,12c2.96,3.91 6.32,8.99 7.48,11.3c1.16,2.32 3.06,6.76 4.23,9.88c1.17,3.13 3.73,7.46 5.69,9.63c1.96,2.17 5.62,4.98 8.13,6.24c2.51,1.27 7.94,3.51 12.06,4.99c4.12,1.47 11.87,5.11 17.2,8.09c5.34,2.97 12.54,6.61 16,8.09c3.47,1.47 8.1,3.26 10.3,3.96c2.2,0.71 7.73,1.32 12.29,1.35zm-0.79,-10.3c-1.41,0.26 -4.39,-0.5 -6.83,-1.73c-2.38,-1.21 -4.86,-3.07 -5.5,-4.15c-0.64,-1.07 -4.32,-4.09 -8.17,-6.7c-3.85,-2.61 -8.03,-5.29 -9.3,-5.96c-1.78,-0.94 -3.47,-0.95 -7.57,-0.03c-4.5,1.01 -5.73,0.94 -8.44,-0.46c-1.74,-0.9 -3.9,-2.76 -4.8,-4.12c-1.2,-1.84 -2.5,-2.48 -5.05,-2.48c-2.84,0 -3.73,-0.55 -5.14,-3.19c-0.93,-1.75 -2.91,-4.34 -4.39,-5.75c-1.47,-1.41 -3.16,-3.83 -3.75,-5.38c-0.58,-1.54 -1.06,-4.36 -1.06,-6.25c0,-3.22 -0.2,-3.43 -3.35,-3.43c-2.12,0 -4.03,-0.76 -5.23,-2.09c-1.3,-1.43 -1.9,-3.6 -1.91,-6.87c-0.01,-4.22 -0.5,-5.31 -4.26,-9.38c-3.63,-3.94 -4.25,-5.24 -4.23,-8.89c0.02,-2.55 0.75,-5.21 1.83,-6.61c0.99,-1.29 4.02,-3.55 6.73,-5.03c4.92,-2.67 4.92,-2.67 4.57,-9.95c-0.21,-4.33 0.15,-8.49 0.89,-10.27c0.68,-1.65 2.51,-3.66 4.05,-4.46c1.55,-0.8 4.2,-1.45 5.89,-1.45c1.7,0 4.7,0.67 6.67,1.5c1.98,0.83 4.23,1.5 5.02,1.5c0.78,0 3.91,-1.89 6.97,-4.19c4.69,-3.54 6.28,-4.19 10.21,-4.18c2.6,0.01 6.2,0.84 8.15,1.89c2.78,1.48 5.28,1.81 12.19,1.62c6.33,-0.18 9.52,0.18 11.73,1.32c1.66,0.86 3.48,2.43 4.05,3.48c0.57,1.06 1.03,4.01 1.03,6.55c0,2.9 -1.12,7.24 -2.99,11.65c-1.65,3.86 -3.97,8.39 -5.16,10.07c-1.21,1.7 -2.37,5.17 -2.63,7.86c-0.26,2.65 -0.17,6.4 0.2,8.34c0.36,1.94 1.75,4.83 3.09,6.41c1.41,1.68 4.92,3.8 8.39,5.06c3.6,1.31 6.98,3.38 8.51,5.2c1.4,1.66 3.33,5.24 4.3,7.97c1.39,3.9 2.23,4.95 3.96,4.95c1.21,0 3.46,-0.48 5,-1.07c1.55,-0.58 4.24,-0.79 6,-0.46c1.75,0.32 4.49,1.82 6.09,3.31c1.93,1.8 3.14,4.15 3.58,6.95c0.37,2.33 0.2,6.37 -0.39,8.98c-0.58,2.61 -2.15,6.17 -3.48,7.92c-1.33,1.74 -4.37,4.11 -6.75,5.26c-2.38,1.16 -9.26,3.04 -15.28,4.2c-6.02,1.15 -12.06,2.29 -13.44,2.54zm-0.19,-3.91c2.03,-0.27 7.96,-1.26 13.19,-2.22c5.23,-0.95 11.52,-2.82 14,-4.17c2.48,-1.34 5.4,-3.65 6.5,-5.13c1.54,-2.08 2,-4.27 2,-9.51c0,-6.08 -0.27,-7.01 -2.5,-8.72c-1.38,-1.06 -3.57,-1.94 -4.88,-1.95c-1.32,-0.01 -4.13,0.5 -6.26,1.14c-2.77,0.83 -4.53,0.86 -6.19,0.1c-1.57,-0.71 -3.05,-3.05 -4.54,-7.12c-1.25,-3.42 -3.33,-6.94 -4.8,-8.09c-1.42,-1.13 -4.43,-2.54 -6.67,-3.14c-2.34,-0.63 -5.66,-2.68 -7.76,-4.78c-2.03,-2.02 -4.16,-5.39 -4.74,-7.5c-0.58,-2.1 -0.81,-6.59 -0.52,-9.97c0.35,-4.04 1.34,-7.4 2.86,-9.75c1.27,-1.98 3.71,-6.86 5.41,-10.86c1.7,-3.99 3.09,-8.31 3.09,-9.6c0,-1.29 -1.09,-3.6 -2.42,-5.14c-2.36,-2.73 -2.67,-2.8 -11.4,-2.56c-7.17,0.2 -9.84,-0.15 -13.33,-1.73c-2.39,-1.09 -5.76,-1.99 -7.49,-2c-2.22,-0.01 -4.57,1.16 -8,4.01c-2.67,2.22 -5.76,4.26 -6.86,4.54c-1.1,0.28 -4.65,-0.41 -7.88,-1.52c-4.97,-1.72 -6.29,-1.84 -8.49,-0.78c-1.44,0.69 -3.24,2.55 -4,4.14c-1.12,2.33 -1.16,3.88 -0.22,8.08c0.79,3.55 0.85,6.02 0.17,7.8c-0.66,1.74 -2.79,3.46 -6.37,5.16c-3.3,1.56 -5.84,3.53 -6.55,5.09c-0.64,1.41 -1.16,3.28 -1.16,4.16c0,0.88 1.91,3.37 4.25,5.53c3.93,3.63 4.29,4.38 4.75,10.08c0.5,6.16 0.5,6.16 4.42,6.8c2.15,0.35 4.52,1.45 5.25,2.45c0.73,1 1.33,3.8 1.33,6.22c0,3.67 0.51,4.84 3.07,7.06c1.69,1.46 3.7,4.14 4.46,5.94c1.18,2.79 1.76,3.18 3.88,2.65c2.02,-0.5 3.26,0.17 6.62,3.6c4.03,4.12 4.25,4.2 8.8,3.46c2.57,-0.42 5.9,-0.72 7.4,-0.67c1.51,0.05 6.22,2.43 10.5,5.29c4.28,2.86 9.94,7.2 12.58,9.64c4.28,3.96 5.22,4.39 8.5,3.97zm66.19,-95.72c-0.86,0 -2.56,-0.7 -3.78,-1.56c-1.23,-0.86 -2.9,-2.86 -3.73,-4.45c-0.82,-1.59 -1.49,-4.18 -1.49,-5.75c0,-1.57 0.56,-3.59 1.25,-4.48c0.69,-0.89 1.93,-1.71 2.75,-1.81c0.82,-0.1 2.32,-0.13 3.33,-0.07c1,0.07 3.14,1.44 4.75,3.04c2.37,2.37 2.92,3.78 2.92,7.45c0,3.53 -0.48,4.86 -2.22,6.07c-1.22,0.86 -2.92,1.56 -3.78,1.56zm0.04,-4c1.2,0 2.15,-0.91 2.53,-2.41c0.33,-1.32 0.1,-3.34 -0.51,-4.47c-0.61,-1.14 -2,-2.56 -3.1,-3.14c-1.1,-0.59 -2.44,-0.8 -2.98,-0.47c-0.54,0.34 -0.98,1.83 -0.98,3.33c0,1.49 0.7,3.72 1.56,4.94c0.85,1.22 2.42,2.22 3.48,2.22zm166.93,-6.55c-2.5,0.45 -4.66,0.02 -7.71,-1.51c-3.47,-1.75 -4.82,-3.33 -7.5,-8.76c-3.05,-6.22 -3.26,-7.3 -3.26,-17.16c0,-10.48 0.02,-10.56 4.94,-21.33c3.45,-7.55 6.09,-11.84 8.75,-14.25c3.05,-2.75 4.64,-3.44 7.94,-3.44c2.39,0 5.5,0.85 7.37,2c1.78,1.1 4.45,3.84 5.95,6.1c1.49,2.25 3.39,5.96 4.22,8.25c0.91,2.5 1.73,9.39 2.06,17.3c0.5,12.15 0.38,13.5 -1.67,17.72c-1.36,2.82 -4,5.87 -6.88,7.97c-2.58,1.87 -6.05,4.1 -7.71,4.94c-1.67,0.85 -4.6,1.83 -6.5,2.17zm-1.42,-3.53c1.13,0.04 4.36,-1.07 7.17,-2.47c2.81,-1.4 6.92,-4.5 9.12,-6.89c3.04,-3.3 4.18,-5.5 4.73,-9.16c0.39,-2.64 0.21,-9.43 -0.41,-15.1c-0.79,-7.22 -1.84,-11.71 -3.55,-15.04c-1.33,-2.62 -3.82,-6.09 -5.53,-7.71c-2.22,-2.1 -4.1,-2.95 -6.58,-2.95c-2.46,0 -4.35,0.84 -6.46,2.86c-1.79,1.71 -4.89,7.33 -7.71,13.95c-4.3,10.11 -4.71,11.76 -4.61,18.59c0.08,4.93 0.83,9.42 2.21,13.09c1.15,3.07 3.1,6.5 4.33,7.62c1.23,1.12 2.91,2.28 3.74,2.58c0.83,0.31 2.42,0.59 3.55,0.63zm6.73,-13.25c-2.08,0.51 -4.68,0.74 -5.78,0.53c-1.1,-0.22 -3.01,-1.33 -4.25,-2.48c-1.24,-1.14 -2.7,-3.68 -3.25,-5.65c-0.54,-1.96 -0.99,-5 -0.99,-6.74c-0.01,-1.94 0.97,-4.34 2.51,-6.18c1.39,-1.65 3.16,-5.1 3.94,-7.67c0.77,-2.57 2.18,-5.53 3.13,-6.57c0.94,-1.05 2.49,-1.91 3.43,-1.91c0.94,0 2.86,0.9 4.26,2.01c1.71,1.34 2.92,3.68 3.64,7.05c0.59,2.77 1.08,8.78 1.08,13.35c0,6.77 -0.37,8.79 -1.97,10.83c-1.09,1.37 -3.67,2.92 -5.75,3.43zm-3.62,-2.67c0.79,0 2.77,-0.69 4.39,-1.53c2.95,-1.52 2.95,-1.52 2.95,-11.53c0,-6.57 -0.51,-11.22 -1.48,-13.55c-1,-2.38 -2.03,-3.44 -3.16,-3.22c-1.01,0.2 -2.4,2.48 -3.52,5.77c-1.02,2.99 -2.8,6.46 -3.98,7.7c-1.78,1.9 -2.04,3.12 -1.62,7.5c0.37,3.82 1.11,5.72 2.74,7.05c1.23,0.99 2.89,1.81 3.68,1.81zm-256.67,-4c-3.76,0 -5.25,-0.53 -7.35,-2.64c-2.07,-2.06 -2.64,-3.61 -2.64,-7.11c0,-2.74 0.84,-5.97 2.16,-8.33c1.19,-2.12 3.62,-4.54 5.4,-5.38c1.79,-0.85 4.66,-1.54 6.39,-1.54c1.73,0 4.46,0.68 6.06,1.51c1.99,1.02 3.29,2.77 4.11,5.5c0.93,3.1 0.93,4.88 -0.01,8.02c-0.84,2.82 -2.44,4.92 -5.31,7c-3.17,2.29 -5.17,2.97 -8.81,2.97zm-0.5,-3c0.88,0 3.36,-0.9 5.52,-2c2.16,-1.11 4.39,-2.88 4.96,-3.94c0.56,-1.06 1.03,-3.39 1.03,-5.17c0,-1.78 -0.74,-4.06 -1.65,-5.06c-1.1,-1.22 -3.06,-1.83 -5.83,-1.83c-3.03,0 -4.75,0.61 -6.28,2.25c-1.16,1.24 -2.59,3.52 -3.17,5.07c-0.59,1.54 -1.07,3.48 -1.07,4.29c0,0.81 1.1,2.59 2.45,3.94c1.35,1.35 3.17,2.45 4.04,2.45zm-99.81,-89.03c-1.75,-0.01 -4.41,-0.79 -5.92,-1.72c-1.51,-0.94 -3.43,-3.13 -4.25,-4.88c-0.83,-1.74 -1.51,-5.8 -1.5,-9.02c0.01,-4.05 0.74,-7.39 2.36,-10.85c1.3,-2.75 4.21,-7.08 6.47,-9.62c2.26,-2.55 5.65,-5.36 7.53,-6.25c1.89,-0.9 4.85,-1.63 6.58,-1.63c1.73,0 4.41,0.65 5.96,1.45c1.54,0.8 3.29,2.71 3.88,4.25c0.59,1.54 1.36,3.82 1.71,5.06c0.35,1.24 0.1,4.84 -0.55,8c-0.66,3.15 -2.21,7.99 -3.45,10.74c-1.24,2.75 -4,6.66 -6.13,8.69c-2.13,2.03 -5.14,4.17 -6.69,4.75c-1.54,0.58 -4.24,1.05 -6,1.03zm262.89,-1.04c-4.99,-0.03 -10.87,-0.63 -13.07,-1.32c-2.2,-0.69 -5.12,-1.85 -6.5,-2.57c-1.38,-0.73 -6.65,-5.31 -11.71,-10.19c-8.54,-8.21 -10.34,-9.41 -24.54,-16.34c-8.43,-4.11 -18.46,-9.55 -22.29,-12.09c-3.83,-2.54 -9.09,-6.69 -11.69,-9.22c-2.6,-2.52 -5.63,-6.51 -6.74,-8.85c-1.1,-2.35 -2.29,-6.72 -2.64,-9.72c-0.48,-4.08 -0.12,-7.15 1.44,-12.31c1.15,-3.77 3.79,-9.29 5.88,-12.26c2.08,-2.96 5.97,-6.89 8.63,-8.72c2.67,-1.82 7.14,-4 9.93,-4.83c2.8,-0.83 7.75,-1.51 11,-1.51c4.61,0 8.36,0.96 17.07,4.37c6.14,2.41 14.88,5.6 19.43,7.09c5.31,1.75 10.32,4.27 14,7.05c3.15,2.39 13.46,12.14 22.91,21.67c12.65,12.75 17.71,18.56 19.2,22.04c1.11,2.59 2.53,7.52 3.15,10.96c0.62,3.43 0.85,8.28 0.5,10.78c-0.36,2.5 -1.77,6.89 -3.14,9.75c-1.38,2.87 -4.57,7.04 -7.09,9.26c-2.68,2.36 -6.69,4.66 -9.63,5.53c-2.96,0.88 -8.77,1.47 -14.1,1.43zm-262.87,-2.93c1.87,0 4.61,-0.63 6.1,-1.4c1.48,-0.78 3.69,-2.47 4.89,-3.76c1.21,-1.29 3.36,-4.9 4.79,-8.02c1.43,-3.11 2.84,-7.84 3.15,-10.49c0.3,-2.66 0.08,-6.04 -0.49,-7.53c-0.58,-1.48 -2.2,-3.45 -3.62,-4.38c-2.4,-1.57 -2.84,-1.57 -7.03,0.03c-2.64,1.01 -5.95,3.42 -8.07,5.88c-1.98,2.29 -4.39,5.74 -5.37,7.67c-0.98,1.93 -2.05,5.07 -2.39,7c-0.34,1.93 -0.21,5.22 0.28,7.32c0.48,2.11 1.67,4.69 2.63,5.75c1.07,1.18 3.05,1.93 5.13,1.93zm266.3,-0.55c5.34,-0.33 9.03,-1.21 12.82,-3.06c3.54,-1.74 6.44,-4.15 8.69,-7.25c1.85,-2.55 3.91,-6.57 4.57,-8.93c0.72,-2.55 0.96,-6.8 0.6,-10.5c-0.32,-3.42 -1.35,-8.46 -2.28,-11.21c-1.46,-4.29 -4.33,-7.63 -20.3,-23.57c-10.23,-10.22 -20.7,-20 -23.26,-21.73c-2.56,-1.74 -9.31,-4.7 -15,-6.57c-5.69,-1.87 -13.94,-4.87 -18.34,-6.67c-6.13,-2.5 -9.4,-3.25 -14,-3.19c-3.52,0.04 -8.38,0.96 -11.74,2.22c-3.59,1.34 -7.37,3.77 -10.1,6.51c-2.4,2.39 -5.65,6.98 -7.22,10.18c-2.42,4.92 -2.87,7.06 -2.89,13.82c-0.01,6.3 0.44,8.86 2.14,12.07c1.19,2.24 3.93,5.66 6.08,7.61c2.16,1.94 6.74,5.45 10.18,7.78c3.44,2.34 11.94,6.98 18.9,10.32c6.96,3.34 14.92,7.5 17.69,9.25c2.76,1.74 8.16,6.4 11.98,10.34c3.82,3.95 8.81,8.08 11.1,9.19c2.28,1.1 6.11,2.42 8.51,2.93c2.4,0.5 7.75,0.71 11.87,0.46zm-262,-5.45c-1.72,0 -3.9,-0.9 -5.11,-2.11c-1.78,-1.78 -2.05,-2.99 -1.67,-7.55c0.27,-3.26 1.25,-6.5 2.46,-8.13c1.1,-1.49 3.28,-3.34 4.85,-4.11c2.45,-1.2 3.21,-1.19 5.4,0.03c1.4,0.79 2.93,2.54 3.41,3.9c0.58,1.67 0.31,4.37 -0.84,8.32c-0.93,3.22 -2.56,6.71 -3.6,7.75c-1.05,1.05 -3.25,1.9 -4.9,1.9zm-0.45,-3c0.72,0 1.97,-0.66 2.77,-1.46c0.8,-0.81 2.01,-3.74 2.67,-6.51c0.67,-2.78 0.96,-5.72 0.64,-6.54c-0.31,-0.82 -1.45,-1.49 -2.53,-1.49c-1.08,0 -2.86,1.25 -3.95,2.78c-1.09,1.53 -2.29,4.46 -2.68,6.51c-0.45,2.44 -0.27,4.25 0.54,5.22c0.68,0.82 1.82,1.49 2.54,1.49zm260.88,-0.02c-1.61,-0.01 -4.73,-0.85 -6.93,-1.86c-2.2,-1.01 -4.9,-2.85 -6,-4.08c-1.1,-1.24 -3.35,-4.79 -5,-7.89c-3,-5.65 -3,-5.65 -10,-5.65c-4.92,0 -7.7,-0.49 -9.35,-1.66c-1.29,-0.92 -3.78,-3.84 -5.53,-6.5c-3.19,-4.84 -3.19,-4.84 -10.16,-4.51c-5.89,0.28 -7.4,0 -9.65,-1.76c-1.46,-1.15 -2.96,-3.55 -3.33,-5.33c-0.37,-1.78 -1.33,-4.28 -2.13,-5.54c-0.81,-1.27 -4.77,-3.81 -8.82,-5.65c-4.18,-1.91 -7.87,-4.31 -8.54,-5.56c-0.65,-1.22 -0.97,-3.85 -0.71,-5.85c0.25,-2 1.58,-6.23 2.94,-9.39c1.36,-3.17 3.33,-6.71 4.38,-7.87c1.71,-1.9 2.54,-2.03 8.4,-1.38c3.58,0.4 8.08,0.75 10,0.79c1.92,0.03 4.88,-0.54 6.57,-1.27c1.72,-0.74 4.23,-1.04 5.68,-0.67c1.43,0.36 4.59,2.17 7.04,4.04c2.55,1.95 6.25,3.69 8.71,4.11c2.4,0.41 7.62,2.83 11.89,5.52c4.19,2.64 9.31,6.3 11.39,8.14c2.79,2.46 3.94,4.39 4.39,7.34c0.33,2.2 1.05,4.56 1.59,5.25c0.54,0.69 2.34,1.25 3.99,1.25c1.66,0 4.51,0.92 6.34,2.05c1.82,1.13 4.9,4.22 6.84,6.86c2.03,2.76 4,6.98 4.63,9.92c0.8,3.72 0.79,6.57 -0.01,10.45c-0.67,3.21 -2.3,6.78 -4.08,8.94c-1.63,1.98 -4.91,4.54 -7.28,5.69c-2.38,1.15 -5.64,2.08 -7.26,2.07zm-0.62,-3.98c1.98,0 5.45,-1.13 7.94,-2.6c3.05,-1.78 5.02,-3.89 6.32,-6.75c1.04,-2.28 1.9,-6.08 1.91,-8.43c0.01,-2.36 -0.68,-5.96 -1.53,-8c-0.85,-2.05 -3.4,-5.62 -5.67,-7.93c-3.13,-3.2 -5.16,-4.37 -8.39,-4.86c-2.35,-0.35 -4.98,-1.43 -5.86,-2.39c-0.87,-0.97 -1.92,-3.72 -2.33,-6.13c-0.61,-3.54 -1.49,-4.89 -4.72,-7.18c-2.19,-1.55 -7.02,-4.83 -10.74,-7.28c-4.57,-3.01 -7.83,-4.45 -10.07,-4.45c-2.3,0 -4.94,-1.22 -8.67,-4c-2.95,-2.2 -6.43,-4 -7.73,-4c-1.3,0 -3.78,0.73 -5.51,1.63c-2.64,1.36 -3.94,1.44 -8.03,0.5c-2.69,-0.62 -6.66,-1.13 -8.83,-1.13c-3.95,0 -3.95,0 -7.42,7.61c-2.38,5.22 -3.27,8.38 -2.84,10.08c0.47,1.88 2.35,3.27 7.74,5.75c3.92,1.79 7.94,4.19 8.95,5.33c1.01,1.14 2.4,4.02 3.1,6.4c0.82,2.81 2.11,4.75 3.69,5.53c1.71,0.84 3.66,0.91 6.6,0.25c2.61,-0.59 5.11,-0.58 6.66,0c1.37,0.52 4.3,3.41 6.53,6.42c2.22,3.02 5,5.78 6.16,6.15c1.17,0.37 4.05,0.39 6.39,0.04c2.5,-0.38 5.31,-0.17 6.79,0.51c1.57,0.71 3.78,3.64 5.88,7.78c2.15,4.23 4.61,7.46 6.77,8.9c1.91,1.26 4.94,2.25 6.91,2.25zm-152.35,-42c-1.75,0 -4.38,-0.93 -5.83,-2.07c-1.57,-1.24 -2.63,-3.07 -2.63,-4.55c0,-1.36 1.09,-3.56 2.41,-4.88c1.33,-1.33 3.62,-2.72 5.09,-3.09c1.89,-0.47 3.45,-0.09 5.34,1.31c1.73,1.29 2.77,3.11 2.98,5.24c0.23,2.31 -0.33,3.95 -1.92,5.65c-1.46,1.55 -3.37,2.39 -5.44,2.39zm-0.21,-3.03c0.41,0.02 1.68,-0.9 2.81,-2.03c1.14,-1.14 1.9,-2.57 1.69,-3.18c-0.2,-0.61 -1.09,-1.57 -1.98,-2.13c-1.12,-0.71 -2.41,-0.66 -4.19,0.15c-1.5,0.69 -2.58,2 -2.58,3.15c0,1.08 0.79,2.43 1.75,2.99c0.96,0.56 2.09,1.03 2.5,1.05z" fill="black" fill-rule="evenodd" id="svg_2"/>
 </g>
</svg>