<?xml version="1.0" encoding="UTF-8"?>
<svg width="1024" height="1024" viewBox="0 0 1024 1024" xmlns="http://www.w3.org/2000/svg" version="1.1">
  <title>Atoll (colorized)</title>
  <!-- Colorized from Atoll_bw.svg: deep navy sea, warm gold ring, subtle sand highlight -->
  <rect width="100%" height="100%" fill="#0f1724" />
  <!-- Main shape (was black) -> gold ring and sand fill variations applied via group coloring -->
  <g fill-rule="evenodd">
    <!-- outer ring / land mass: slightly desaturated gold -->
    <path d="M528,912.47c-15.12,0.14 -30.43,0.1 -34,-0.1c-3.57,-0.2 -17.52,-1.06 -31,-1.9c-16.59,-1.04 -28.4,-2.32 -36.58,-3.97c-6.64,-1.34 -19.46,-4.87 -28.5,-7.83c-9.03,-2.96 -24.3,-8.64 -33.92,-12.62c-9.62,-3.98 -21.1,-8.84 -25.5,-10.79c-4.4,-1.96 -11.87,-5.73 -16.6,-8.39c-4.73,-2.65 -15.53,-9.62 -24,-15.48c-8.47,-5.87 -25.97,-18.55 -38.9,-28.19c-16.08,-11.99 -26.66,-20.73 -33.5,-27.66c-6.06,-6.14 -14.18,-16.02 -20.62,-25.09c-5.85,-8.22 -14.67,-21.47 -19.61,-29.45c-4.95,-7.98 -13.4,-22.12 -18.78,-31.43c-5.38,-9.32 -12.39,-22.37 -15.58,-29c-3.19,-6.64 -7.64,-17.47 -9.9,-24.07c-2.26,-6.6 -5.42,-16.95 -7.03,-23c-1.6,-6.05 -4.07,-17.3 -5.49,-25c-1.41,-7.7 -4.44,-26.6 -6.73,-42c-4.03,-27.03 -4.17,-28.87 -4.19,-53c-0.02,-19.49 0.37,-27.19 1.74,-34.95c0.96,-5.46 4.9,-24.64 8.73,-42.61c3.84,-17.97 8.53,-37.58 10.43,-43.58c1.9,-5.99 5.47,-15.51 7.93,-21.14c2.47,-5.63 11.32,-22.95 19.68,-38.48c8.36,-15.53 17.2,-31.28 19.64,-35c2.45,-3.72 6.53,-9.35 9.08,-12.5c2.54,-3.16 15.72,-18.34 29.29,-33.74c13.56,-15.4 27.3,-30.51 30.53,-33.57c3.24,-3.07 11.32,-9.22 17.98,-13.67c6.65,-4.45 18.75,-12.22 26.9,-17.26c8.15,-5.04 20.39,-12.3 27.21,-16.12c6.82,-3.82 16.32,-8.77 21.1,-11c4.78,-2.23 16.79,-7.67 26.69,-12.08c9.9,-4.42 22.95,-9.97 29,-12.34c6.05,-2.37 16.27,-5.91 22.71,-7.86c6.44,-1.95 16.95,-4.29 23.36,-5.22c10.6,-1.52 17.02,-1.57 71.29,-0.54c45.12,0.85 61.82,1.5 68.61,2.68c4.93,0.85 12.58,2.47 17,3.59c4.42,1.13 21.98,7.01 39.03,13.09c17.05,6.07 35.5,13.16 41,15.75c5.65,2.66 20.01,11.43 33,20.15c12.65,8.5 27.73,19.01 33.5,23.37c5.77,4.35 14.33,11.09 19,14.96c4.67,3.88 15.48,13.18 24,20.67c8.52,7.48 18.46,16.71 22.08,20.51c3.62,3.79 9.73,11.62 13.59,17.39c3.86,5.77 13.92,21.52 22.36,35c8.44,13.48 17.92,29.9 21.06,36.5c3.15,6.6 7.83,17.85 10.41,24.99c2.58,7.15 6.19,18.49 8.03,25.2c1.84,6.72 5.85,23.37 8.9,37.01c3.05,13.64 6.31,29.53 7.24,35.3c1.29,8.02 1.69,16.98 1.68,38c0,22.25 -0.52,32.78 -2.69,55.17c-1.47,15.22 -3.36,31.65 -4.18,36.5c-0.83,4.86 -2.89,13.56 -4.57,19.33c-1.68,5.77 -6,17.92 -9.6,27c-3.6,9.08 -12.08,28.34 -18.86,42.82c-7.14,15.25 -14.04,28.55 -16.42,31.64c-2.25,2.92 -5.84,6.52 -7.97,8c-2.13,1.47 -6.05,3.34 -8.71,4.15c-2.67,0.81 -8.28,1.74 -12.47,2.07c-6.11,0.48 -8.97,0.18 -14.5,-1.5c-3.78,-1.15 -8.9,-3.4 -11.38,-5c-2.48,-1.6 -10.35,-7.96 -17.5,-14.14c-7.15,-6.18 -16.47,-14.65 -20.71,-18.82c-4.92,-4.84 -8.53,-9.41 -9.98,-12.65c-1.87,-4.15 -2.29,-6.83 -2.3,-14.75c-0.01,-9.68 -0.01,-9.68 7.19,-23.58c3.96,-7.64 9.21,-18.81 11.67,-24.82c2.46,-6 6.04,-16.09 7.95,-22.42c1.91,-6.33 4.39,-15.77 5.5,-21c1.12,-5.23 2.83,-15.35 3.8,-22.5c1.26,-9.28 1.76,-19.44 1.74,-35.5c-0.02,-17.94 -0.47,-25.34 -2.18,-36.5c-1.19,-7.7 -3.49,-19.4 -5.11,-26c-1.62,-6.6 -5.03,-18.07 -7.58,-25.5c-2.54,-7.43 -7.67,-19.8 -11.39,-27.5c-3.72,-7.7 -9.75,-18.87 -13.4,-24.82c-3.65,-5.95 -10.56,-16.07 -15.34,-22.5c-5.28,-7.09 -15.02,-17.98 -24.78,-27.73c-9.61,-9.59 -20.91,-19.67 -28.08,-25.04c-6.6,-4.94 -16.2,-11.58 -21.33,-14.75c-5.13,-3.17 -13.46,-7.98 -18.51,-10.68c-5.05,-2.7 -13.95,-6.9 -19.78,-9.34c-5.82,-2.44 -16.16,-6.24 -22.98,-8.45c-6.82,-2.21 -17.57,-5.17 -23.9,-6.57c-6.33,-1.41 -16.45,-3.35 -22.5,-4.31c-8.46,-1.35 -17.12,-1.76 -37.5,-1.76c-20.46,-0.01 -29.12,0.4 -38,1.77c-6.32,0.98 -16.68,2.92 -23,4.31c-6.32,1.4 -18.25,4.78 -26.49,7.52c-8.25,2.75 -21.16,7.83 -28.69,11.29c-7.52,3.47 -19.12,9.55 -25.75,13.52c-6.64,3.97 -16.99,10.89 -22.99,15.38c-6,4.49 -15.29,11.98 -20.63,16.66c-5.34,4.68 -14.01,13.23 -19.25,19c-5.25,5.77 -13.23,15.45 -17.74,21.5c-4.51,6.05 -10.81,15.27 -13.99,20.5c-3.18,5.23 -9.08,16.27 -13.11,24.54c-4.06,8.35 -9.76,22.37 -12.8,31.5c-3.02,9.05 -6.82,23.21 -8.46,31.46c-1.64,8.25 -3.46,19.92 -4.04,25.92c-0.58,6.01 -1.06,18.61 -1.06,28.01c0,9.4 0.68,22.91 1.52,30.04c0.83,7.12 2.63,18.37 4,24.99c1.38,6.62 3.85,16.52 5.5,21.99c1.65,5.47 4.66,14.47 6.69,20c2.02,5.53 7.21,17.13 11.54,25.78c4.32,8.65 11.77,21.56 16.55,28.69c4.79,7.12 12.46,17.48 17.05,23.01c4.6,5.54 14.05,15.53 21,22.21c6.96,6.69 18.22,16.31 25.02,21.39c6.81,5.07 17.93,12.47 24.71,16.44c6.78,3.96 18.27,9.92 25.53,13.23c7.26,3.31 19.76,8.18 27.79,10.83c8.03,2.64 21.35,6.17 29.6,7.85c8.25,1.67 18.82,3.52 23.5,4.11c4.68,0.59 15.25,1.35 23.5,1.68c8.95,0.36 20.65,0.11 29,-0.62c7.7,-0.67 18.95,-2.1 25,-3.19c6.05,-1.08 15.28,-3.05 20.52,-4.37c5.24,-1.33 14.91,-4.26 21.5,-6.52c6.59,-2.26 18.92,-7.46 27.4,-11.55c8.48,-4.1 17.69,-8.86 20.48,-10.57c2.79,-1.72 7.51,-3.96 10.49,-4.98c2.98,-1.03 7.76,-1.87 10.61,-1.87c2.85,0 7.22,0.61 9.71,1.36c2.49,0.75 6.63,2.81 9.2,4.58c2.57,1.77 10.17,9.78 16.88,17.8c6.72,8.02 14.63,17.55 17.6,21.17c2.96,3.63 6.78,9.51 8.49,13.09c2.77,5.79 3.11,7.48 3.1,15.5c-0.01,7.62 -0.42,9.87 -2.65,14.67c-1.45,3.11 -4.5,8.17 -6.76,11.24c-2.54,3.43 -6.14,6.75 -9.35,8.61c-2.87,1.67 -13.11,7.03 -22.76,11.93c-9.64,4.89 -25.39,12.24 -35,16.34c-9.6,4.1 -25.38,10.43 -35.05,14.06c-9.67,3.64 -21.91,7.76 -27.2,9.17c-5.28,1.41 -15.59,3.49 -22.73,4.62c-10.56,1.64 -18.97,2.12 -40.8,2.33z" fill="#D4A504"/>
    <!-- inner subtle sand highlight -->
    <path d="M506,500c-14,0 -26,12 -26,26s12,26 26,26 26,-12 26,-26 -12,-26 -26,-26z" fill="#FFF4D6" opacity="0.6" />
  </g>
</svg>
